<?xml version="1.0" standalone="no"?>
<!DOCTYPE svg PUBLIC "-//W3C//DTD SVG 20010904//EN"
 "http://www.w3.org/TR/2001/REC-SVG-20010904/DTD/svg10.dtd">
<svg version="1.0" xmlns="http://www.w3.org/2000/svg"
 width="4941.000000pt" height="124.000000pt" viewBox="0 0 4941.000000 124.000000"
 preserveAspectRatio="xMidYMid meet">

<g transform="translate(0.000000,124.000000) scale(0.100000,-0.100000)"
fill="#000000" stroke="none">
<path d="M25005 1163 c-4 -27 -9 -55 -11 -63 -8 -24 -24 10 -17 37 4 17 1 23
-11 23 -12 0 -16 -10 -16 -38 0 -20 -10 -55 -22 -77 -28 -52 -40 -235 -16
-235 9 0 21 -7 28 -15 11 -13 9 -20 -9 -38 -13 -15 -21 -36 -21 -60 0 -25 -5
-37 -14 -37 -8 0 -16 6 -19 13 -2 6 -7 -16 -12 -51 -6 -58 -5 -65 14 -78 27
-20 27 -48 -1 -66 -18 -12 -20 -18 -11 -29 9 -11 8 -19 -5 -36 -14 -18 -33
-23 -114 -31 -149 -14 -194 1 -182 63 4 22 1 35 -10 44 -21 17 -21 35 0 27 13
-5 14 1 10 37 -11 90 -25 216 -36 322 -22 228 -31 273 -54 279 -38 10 -42 7
-38 -29 3 -23 0 -35 -8 -35 -8 0 -11 16 -8 53 l3 52 -2867 3 c-2863 2 -2868 2
-2868 -18 0 -19 -7 -20 -135 -20 l-135 0 -1 -32 c0 -18 0 -176 1 -350 l1 -318
-471 0 -470 0 0 290 c0 289 0 290 -22 304 -18 12 -69 15 -246 15 -223 0 -224
0 -248 -24 l-24 -24 0 -281 0 -280 -600 0 -600 0 0 279 c0 266 -1 279 -21 304
l-20 27 -229 -3 c-195 -2 -232 -4 -245 -18 -14 -14 -16 -53 -16 -303 l0 -286
-605 0 -604 0 -1 258 c-1 141 0 269 1 283 1 18 -7 33 -26 48 -27 21 -35 22
-257 19 -213 -3 -230 -4 -243 -22 -11 -16 -14 -74 -14 -303 l0 -283 -470 0
-470 0 0 318 c1 174 1 332 0 350 l0 32 -135 0 -135 0 -1 -32 c0 -18 0 -176 1
-350 l1 -318 -471 0 -470 0 0 285 c0 272 -1 286 -20 305 -19 19 -33 20 -245
19 -197 -1 -228 -3 -246 -18 -21 -17 -21 -23 -20 -304 l1 -287 -605 0 -605 0
0 276 c0 265 -4 306 -31 324 -5 3 -112 7 -238 7 l-230 2 -21 -26 c-19 -24 -20
-39 -20 -304 l0 -279 -600 0 -600 0 0 279 c0 260 -1 280 -19 302 -19 24 -20
24 -250 25 -176 2 -234 -1 -248 -11 -16 -12 -18 -38 -21 -304 l-3 -291 -469 0
-469 0 0 318 c0 174 0 332 -1 350 l0 32 -135 0 -135 0 0 -37 c-1 -21 0 -179 0
-350 l1 -313 -471 0 -470 0 0 285 c0 265 -1 286 -19 304 -17 17 -37 18 -242
19 -180 0 -228 -2 -246 -14 -23 -14 -23 -15 -23 -304 l0 -290 -605 0 -605 0 0
288 -1 287 -24 18 c-23 16 -46 18 -251 15 -223 -3 -226 -3 -245 -27 -18 -22
-19 -43 -19 -302 l0 -279 -601 2 -600 3 -3 284 c-2 281 -2 284 -25 302 -20 16
-43 18 -214 18 -241 1 -271 -3 -286 -35 -7 -17 -11 -119 -11 -299 l0 -275
-160 0 -160 0 0 185 c0 156 -2 187 -15 191 -12 5 -15 24 -15 86 l0 80 32 -4
c25 -2 34 1 36 16 2 10 -1 23 -6 28 -7 7 -10 4 -9 -8 1 -13 -6 -20 -22 -22
-18 -3 -22 0 -18 11 4 11 -4 16 -31 21 -57 9 -195 7 -212 -4 -11 -7 -16 -33
-19 -102 -2 -66 -7 -95 -18 -103 -12 -9 -13 -41 -9 -193 l5 -182 -85 0 c-82 0
-84 1 -80 23 3 12 12 63 21 112 9 50 20 106 25 125 5 19 16 73 25 120 29 157
37 195 46 218 5 13 9 36 9 52 0 16 5 40 11 54 l12 25 601 -2 601 -2 1 -110 c2
-136 1 -130 19 -115 10 8 12 18 6 29 -12 23 -11 183 1 199 8 9 -126 12 -665
12 l-676 0 -6 -48 c-4 -26 -9 -54 -11 -62 -8 -24 -24 10 -17 37 4 17 1 23 -11
23 -12 0 -16 -10 -16 -38 0 -20 -10 -55 -22 -77 -28 -52 -40 -235 -16 -235 9
0 21 -7 28 -15 11 -13 9 -20 -9 -38 -13 -15 -21 -36 -21 -60 0 -25 -5 -37 -14
-37 -8 0 -16 6 -19 13 -2 6 -7 -16 -12 -51 -6 -58 -5 -65 14 -78 27 -20 27
-48 -1 -66 -18 -12 -20 -18 -11 -29 22 -27 -11 -53 -88 -65 -39 -7 -73 -15
-77 -19 -3 -3 -6 -27 -7 -53 0 -45 2 -48 35 -59 19 -7 47 -13 61 -13 33 0 99
-27 99 -40 0 -6 -7 -13 -15 -16 -32 -13 -12 -24 41 -24 36 0 61 -5 70 -15 9
-8 12 -15 8 -15 -3 0 -1 -7 6 -15 18 -22 165 -21 178 1 15 28 55 13 66 -24 5
-17 15 -32 22 -32 7 0 21 -11 32 -25 18 -23 26 -25 102 -25 78 0 82 1 107 30
24 29 27 30 81 24 32 -4 62 -13 68 -20 6 -8 17 -14 23 -14 7 0 9 -5 6 -10 -4
-6 17 -10 55 -10 60 0 90 13 90 39 0 7 25 11 64 11 57 0 67 -3 84 -25 19 -24
25 -25 122 -25 55 0 99 4 96 9 -3 4 6 19 19 31 14 13 25 31 25 41 0 29 25 40
87 37 55 -3 58 -4 61 -30 l3 -28 267 0 c147 0 477 -3 734 -7 l466 -6 4 34 c3
33 4 34 50 37 48 3 48 3 48 -28 l0 -31 148 3 147 3 3 27 c3 25 7 28 43 28 32
0 47 -9 37 -22 -1 -2 4 -12 10 -24 11 -21 15 -21 429 -20 l418 1 5 30 c5 27 9
30 48 33 39 3 44 1 55 -26 6 -15 24 -43 39 -60 26 -32 28 -32 118 -32 86 0 93
2 112 25 14 18 29 25 53 25 39 0 52 -14 35 -35 -11 -13 9 -15 154 -15 107 0
166 4 166 10 0 6 -9 14 -20 18 -19 7 -18 9 9 25 29 17 29 17 60 -18 l30 -35
95 0 c74 0 95 3 100 15 3 8 17 20 31 27 19 8 25 17 21 31 -12 46 -6 47 209 47
125 0 206 4 210 10 8 13 252 13 260 0 4 -6 83 -10 205 -10 185 0 203 -2 245
-22 48 -23 58 -38 25 -38 -26 0 -25 -4 5 -35 23 -23 34 -25 106 -25 76 0 82 2
107 29 l27 29 200 -3 c161 -3 206 -7 232 -20 18 -9 33 -21 33 -26 0 -5 42 -9
93 -9 l92 0 26 38 c15 20 30 48 34 61 7 22 9 23 74 15 36 -4 162 -7 279 -7
119 1 212 -3 212 -8 0 -5 6 -9 14 -9 8 0 16 -7 20 -15 4 -13 34 -15 181 -15
l175 0 0 30 c0 29 2 30 45 30 43 0 45 -1 45 -30 l0 -30 145 0 145 0 0 30 c0
30 1 30 55 30 l55 0 0 -37 0 -36 488 6 c268 4 598 7 735 7 l247 0 0 30 0 31
67 -3 c66 -3 67 -3 75 -35 5 -17 19 -40 33 -51 13 -11 21 -22 18 -26 -3 -3 37
-6 90 -6 90 0 98 2 122 25 22 23 32 26 88 23 56 -3 62 -5 65 -26 3 -22 7 -23
83 -21 74 2 80 3 85 25 5 19 14 24 47 26 30 2 43 8 45 21 2 12 -3 17 -18 17
-13 0 -20 5 -17 12 2 7 14 13 27 13 17 0 26 -7 31 -27 4 -15 18 -41 31 -57 22
-29 25 -30 114 -30 88 -1 93 0 123 28 17 16 31 37 31 48 1 42 7 44 214 42 137
-1 201 2 209 10 15 15 249 15 264 0 7 -7 80 -12 209 -13 l197 -1 16 -25 c9
-14 25 -40 36 -58 l20 -32 93 0 c89 0 94 1 117 28 14 15 30 42 37 60 7 20 19
32 30 32 23 0 23 -19 1 -35 -23 -17 -7 -35 33 -35 27 0 37 -5 46 -25 11 -24
16 -25 89 -25 75 0 79 1 85 25 6 23 11 25 66 25 50 0 63 -4 84 -25 23 -23 32
-25 115 -25 86 0 91 1 114 27 13 16 29 43 36 61 l11 33 66 -3 c65 -3 67 -4 70
-30 l3 -28 412 -2 c227 -1 556 -3 732 -3 l320 0 3 33 c3 31 4 32 53 32 48 0
49 -1 49 -30 l0 -30 145 0 145 0 0 30 c0 29 2 30 45 30 43 0 45 -1 45 -30 l0
-30 198 2 197 3 0 25 c0 25 1 25 65 20 89 -7 351 -4 425 5 60 7 61 7 74 -21 7
-16 22 -44 34 -61 l22 -33 103 0 c83 0 102 3 102 15 0 30 41 36 246 40 l204 3
24 -29 c24 -28 27 -29 119 -29 75 0 96 3 101 15 3 8 17 20 31 27 19 8 25 17
21 31 -12 46 -6 47 209 47 125 0 206 4 210 10 8 13 252 13 260 0 4 -6 87 -10
216 -10 l209 0 0 -33 c0 -26 6 -37 25 -47 14 -7 25 -19 25 -27 0 -10 24 -13
105 -13 63 0 105 4 105 10 0 13 37 50 51 50 6 0 19 -5 30 -11 19 -10 19 -11
-3 -29 -23 -19 -22 -19 151 -20 168 0 174 1 158 18 -21 23 -13 32 30 32 23 0
42 -8 59 -25 23 -23 32 -25 116 -25 86 0 91 1 112 27 11 14 28 40 36 57 13 27
21 31 63 34 46 3 47 3 47 -28 l0 -30 428 2 427 3 3 28 c3 24 7 27 43 27 37 0
39 -2 39 -30 l0 -31 148 3 c122 3 147 6 148 18 1 8 2 21 3 28 1 8 18 12 51 12
l50 0 0 -37 0 -36 488 6 c268 4 598 7 734 7 l247 0 3 27 c3 27 6 28 63 31 42
2 63 -1 70 -11 5 -7 18 -16 28 -20 9 -4 17 -17 17 -30 0 -44 28 -57 124 -57
82 0 89 2 108 25 17 21 28 25 77 25 43 0 60 -4 73 -19 9 -11 14 -22 11 -25 -4
-3 28 -6 70 -6 72 0 77 1 83 24 5 21 13 24 62 28 46 4 62 1 87 -16 16 -12 32
-24 33 -28 2 -5 46 -8 98 -8 75 0 94 3 94 15 0 7 8 18 17 24 10 5 22 24 28 43
13 37 44 48 65 23 9 -11 33 -15 101 -15 52 0 90 4 90 10 1 6 3 15 4 20 1 6 3
15 4 20 0 6 31 10 69 10 38 0 71 2 73 5 3 2 3 28 0 57 -3 29 -3 76 0 103 6 49
6 49 7 -17 l2 -68 35 0 c20 0 47 7 61 16 20 14 30 15 50 5 14 -6 38 -11 53
-11 35 0 101 -27 101 -40 0 -6 -7 -13 -15 -16 -32 -13 -12 -24 41 -24 36 0 61
-5 70 -15 9 -8 12 -15 8 -15 -3 0 -1 -7 6 -15 18 -22 165 -21 178 1 15 28 55
13 66 -23 5 -18 14 -33 21 -33 12 0 45 -31 45 -43 0 -3 -15 -8 -32 -10 -18 -2
217 -4 522 -3 305 0 524 1 485 3 -98 5 -104 8 -72 41 15 16 27 35 27 44 0 28
26 39 87 36 55 -3 58 -4 61 -30 l3 -28 267 0 c147 0 477 -3 734 -7 l466 -6 4
34 c3 33 4 34 51 37 47 3 47 3 47 -28 l0 -31 148 3 147 3 3 27 c3 25 7 28 43
28 36 0 45 -7 40 -34 -6 -31 19 -33 436 -32 l418 1 5 30 c5 27 9 30 48 33 40
3 43 1 56 -30 8 -18 24 -42 35 -52 12 -11 21 -23 21 -28 0 -4 -676 -9 -1502
-11 -827 -1 3562 -2 9752 -3 6190 0 11231 1 11203 3 -59 4 -65 12 -28 41 14
11 25 27 25 35 0 30 13 47 35 47 13 0 25 -7 29 -15 4 -12 25 -15 101 -15 l95
0 0 30 0 30 73 0 c41 0 76 2 78 4 2 3 0 46 -5 96 -7 67 -7 93 2 102 9 9 12 -4
12 -55 l0 -67 39 0 c22 0 43 5 46 10 3 6 26 10 51 10 24 0 44 5 44 10 0 6 -4
10 -10 10 -5 0 -10 7 -10 15 0 8 5 15 10 15 18 0 10 36 -12 57 -19 17 -36 21
-91 21 -80 -1 -101 15 -92 70 4 24 2 34 -10 38 -8 3 -15 16 -15 28 1 21 1 21
16 1 14 -18 15 -16 9 35 -4 30 -11 87 -17 125 -5 39 -11 93 -13 120 -4 50 -20
206 -31 302 -5 41 -11 52 -28 57 -40 11 -45 8 -39 -29 4 -24 2 -35 -7 -35 -8
0 -11 16 -8 53 l3 52 -2867 3 c-2863 2 -2868 2 -2868 -18 0 -19 -7 -20 -135
-20 -122 0 -135 -2 -136 -17 0 -10 0 -168 1 -350 l1 -333 -470 0 -471 0 0 283
c0 269 -1 284 -20 305 -19 20 -28 21 -246 20 -225 0 -227 0 -251 -24 l-23 -23
0 -281 0 -280 -600 0 -600 0 0 279 c0 264 -1 280 -20 304 l-20 26 -215 1
c-118 0 -225 -2 -239 -6 -14 -3 -29 -17 -35 -32 -6 -17 -9 -132 -8 -299 l2
-273 -602 0 -603 0 -2 253 c0 138 -1 267 -2 285 -1 23 -9 40 -25 53 -23 19
-39 20 -253 17 -214 -3 -231 -4 -244 -22 -11 -16 -14 -74 -14 -303 l0 -283
-470 0 -471 0 1 318 c1 174 1 332 1 350 l-1 32 -135 0 -135 0 -1 -32 c0 -18 0
-176 1 -350 l1 -318 -471 0 -470 0 0 285 c0 272 -1 286 -20 305 -19 19 -33 20
-245 19 -196 -1 -228 -3 -246 -18 -20 -16 -21 -24 -20 -304 l0 -287 -604 0
-605 0 0 276 c0 265 -4 306 -31 324 -5 3 -112 7 -238 7 l-230 2 -21 -26 c-19
-24 -20 -39 -20 -304 l0 -279 -600 0 -600 0 0 279 c0 260 -1 280 -19 302 -19
24 -20 24 -250 25 -176 2 -234 -1 -248 -11 -16 -12 -18 -38 -21 -304 l-3 -291
-469 0 -469 0 0 318 c0 174 0 332 -1 350 l0 32 -135 0 -135 0 0 -37 c-1 -21 0
-179 0 -350 l1 -313 -471 0 -470 0 0 285 c0 265 -1 286 -19 304 -17 17 -37 18
-242 19 -180 0 -228 -2 -246 -14 -23 -14 -23 -15 -23 -304 l0 -290 -605 0
-605 0 0 288 -1 287 -24 18 c-23 16 -46 18 -251 15 -223 -3 -226 -3 -245 -27
-18 -22 -19 -43 -19 -302 l0 -279 -601 2 -600 3 -3 284 c-2 281 -2 284 -25
302 -20 16 -43 18 -214 18 -241 1 -271 -3 -286 -35 -7 -17 -11 -119 -11 -299
l0 -275 -160 0 -160 0 0 185 c0 156 -2 187 -15 191 -12 5 -15 24 -15 86 l0 80
32 -4 c25 -2 34 1 36 16 2 10 -1 23 -6 28 -7 7 -10 4 -9 -8 1 -13 -6 -20 -22
-22 -18 -3 -22 0 -18 11 4 11 -4 16 -31 21 -57 9 -195 7 -212 -4 -11 -7 -16
-33 -19 -102 -2 -66 -7 -95 -18 -103 -12 -9 -13 -41 -9 -193 l5 -182 -85 0
c-82 0 -84 1 -80 23 3 12 12 63 21 112 9 50 20 106 25 125 5 19 16 73 25 120
29 157 37 195 46 218 5 13 9 36 9 52 0 16 5 40 11 54 l12 25 601 -2 601 -2 1
-110 c2 -136 1 -130 19 -115 10 8 12 18 6 29 -12 23 -11 183 1 199 8 9 -126
12 -665 12 l-676 0 -6 -47z m22700 26 c5 -7 11 -7 19 0 18 15 1194 15 1212 0
8 -6 14 -30 14 -55 0 -23 4 -45 9 -48 5 -3 11 -23 14 -43 3 -21 10 -58 15 -83
16 -75 43 -212 52 -265 5 -27 16 -81 25 -120 24 -110 27 -105 -65 -105 l-80 0
0 190 c0 162 -2 190 -15 190 -12 0 -15 17 -15 93 0 59 -4 97 -12 105 -15 15
-204 17 -213 2 -3 -5 -12 -7 -20 -3 -11 4 -13 1 -9 -11 5 -12 0 -16 -20 -16
-20 0 -26 5 -26 22 0 26 -13 16 -15 -12 -1 -11 3 -20 9 -21 6 -1 22 -2 36 -2
24 -2 25 -4 23 -77 -1 -43 -6 -76 -12 -78 -7 -2 -11 -66 -11 -193 l0 -189
-165 0 -165 0 0 283 c0 229 -3 287 -14 303 -13 18 -30 19 -248 22 -217 2 -236
1 -251 -16 -15 -16 -17 -55 -19 -308 -2 -159 -6 -288 -10 -286 -5 1 -276 2
-603 2 l-595 0 0 283 c0 276 -1 284 -21 303 -19 18 -39 19 -249 19 -210 0
-230 -1 -249 -19 -20 -19 -21 -27 -21 -303 l0 -283 -605 0 -605 0 0 286 c1
256 -1 288 -16 305 -16 17 -34 19 -245 18 l-229 -1 -20 -25 c-19 -24 -20 -41
-20 -304 l0 -279 -466 2 -466 3 1 355 c2 263 5 356 14 362 19 12 4345 10 4352
-3z m-24631 -12 c5 -9 7 -9 12 1 4 9 135 12 604 12 665 0 622 5 626 -68 0 -21
4 -44 7 -52 6 -19 22 -87 37 -165 6 -33 16 -78 21 -100 5 -22 13 -67 19 -100
8 -54 30 -162 45 -223 5 -21 3 -22 -80 -22 l-85 0 0 190 c0 162 -2 190 -15
190 -12 0 -15 17 -15 94 0 69 -4 97 -14 105 -10 9 -45 11 -113 7 -138 -7 -133
-6 -126 -22 4 -10 -2 -14 -21 -14 -20 0 -26 5 -27 23 -1 21 -1 21 -8 -3 -10
-31 -8 -33 31 -34 l33 -1 3 -77 c2 -65 0 -78 -13 -78 -13 0 -15 -25 -15 -190
l0 -190 -163 0 -163 0 0 286 c0 286 0 287 -23 305 -20 17 -44 18 -244 18 -179
0 -226 -3 -244 -15 l-23 -14 0 -290 0 -290 -605 0 -605 0 0 283 c0 229 -3 287
-14 303 -14 18 -28 19 -251 19 -237 0 -237 0 -256 -24 -18 -22 -19 -42 -19
-302 l0 -279 -600 2 -600 3 -3 281 c-2 262 -3 283 -21 303 -19 21 -26 21 -249
19 -227 -3 -229 -3 -248 -27 -18 -22 -19 -42 -19 -302 l0 -279 -465 0 -465 0
0 353 c0 262 3 356 12 365 18 18 4354 17 4362 -1z m26020 -123 c8 -29 3 -39
-13 -29 -13 8 -15 55 -2 55 5 0 12 -12 15 -26z m-24634 -26 c0 -24 -17 -23
-25 2 -8 26 4 48 16 29 5 -8 9 -22 9 -31z m520 12 c0 -16 -4 -30 -10 -30 -5 0
-10 14 -10 30 0 17 5 30 10 30 6 0 10 -13 10 -30z m-24640 -9 c0 -17 -4 -33
-10 -36 -6 -4 -10 8 -10 29 0 20 5 36 10 36 6 0 10 -13 10 -29z m25040 -17 c0
-16 -16 -19 -25 -4 -9 14 -128 13 -143 -2 -8 -8 -12 -51 -12 -128 0 -77 4
-120 12 -128 15 -15 134 -16 143 -2 19 30 25 -3 25 -135 l0 -145 -80 0 c-44 0
-80 4 -80 9 0 10 24 21 49 21 18 0 26 36 10 46 -6 3 -9 -2 -7 -12 2 -16 -3
-18 -32 -15 -19 1 -37 5 -40 8 -3 2 -5 116 -5 251 l0 247 65 5 c83 6 120 1
120 -16z m23478 11 c7 -6 5 -483 -2 -493 -3 -6 -22 -12 -41 -14 -26 -3 -35 0
-36 12 0 10 -3 9 -8 -5 -10 -23 -4 -38 10 -30 12 8 49 -4 49 -16 0 -5 -35 -9
-77 -9 l-78 0 2 277 c2 274 2 278 23 283 23 6 152 2 158 -5z m-48118 -21 c0
-16 -16 -19 -25 -4 -9 14 -128 13 -143 -2 -17 -17 -17 -239 0 -256 15 -15 134
-16 143 -2 19 30 25 -3 25 -135 l0 -145 -80 0 c-44 0 -80 4 -80 9 0 10 24 21
49 21 18 0 26 36 10 46 -6 3 -9 -2 -7 -12 2 -16 -3 -18 -32 -15 -19 1 -37 5
-40 8 -3 2 -5 116 -5 251 l0 247 65 5 c83 6 120 1 120 -16z m23476 12 c14 -5
19 -405 6 -466 -8 -33 -10 -35 -50 -35 -32 0 -42 -4 -42 -17 0 -10 6 -15 18
-12 9 3 26 -2 37 -10 18 -14 13 -15 -62 -16 l-83 0 0 279 0 280 23 3 c30 4
137 0 153 -6z m1119 -136 l0 -105 -47 -3 -48 -3 0 104 c0 57 2 106 5 109 3 2
24 4 47 4 l43 -1 0 -105z m23775 73 c0 -28 -3 -34 -10 -23 -13 20 -13 60 0 60
6 0 10 -17 10 -37z m-48415 -83 l0 -105 -47 -3 -48 -3 0 104 c0 57 2 106 5
109 3 2 24 4 47 4 l43 -1 0 -105z m23780 62 c-6 -16 -7 -16 -17 1 -5 10 -7 26
-3 35 6 16 7 16 17 -1 5 -10 7 -26 3 -35z m485 18 c0 -16 -4 -30 -10 -30 -5 0
-10 14 -10 30 0 17 5 30 10 30 6 0 10 -13 10 -30z m-24640 -10 c0 -16 -4 -30
-10 -30 -5 0 -10 14 -10 30 0 17 5 30 10 30 6 0 10 -13 10 -30z m25618 8 c9
-9 12 -72 12 -224 0 -236 2 -229 -68 -218 -20 3 -39 8 -42 11 -7 7 -10 370 -3
404 5 27 18 34 69 38 11 0 25 -4 32 -11z m270 4 c9 -7 12 -59 10 -228 l-3
-219 -30 -2 c-16 0 -40 1 -52 4 -23 5 -23 5 -23 223 l0 219 33 4 c17 2 37 4
42 5 6 1 16 -2 23 -6z m1475 -1 c4 -1 7 -100 7 -221 l0 -219 -34 -6 c-74 -14
-70 -24 -76 214 -6 241 -5 245 58 237 21 -3 40 -5 45 -5z m271 -6 c13 -13 15
-48 13 -221 -1 -152 -5 -207 -15 -212 -6 -5 -31 -8 -55 -8 l-42 1 -3 222 -2
222 27 4 c53 8 62 7 77 -8z m1734 7 c9 -7 12 -59 10 -228 l-3 -219 -32 -3
c-18 -2 -41 2 -53 8 -19 10 -20 19 -20 220 0 188 2 210 18 219 21 12 62 14 80
3z m2410 0 l22 -2 0 -220 c0 -188 -2 -220 -15 -221 -8 -1 -32 -2 -52 -3 l-38
-1 -5 213 c-3 118 -2 219 2 226 6 11 21 12 86 8z m280 -1 c9 -1 12 -52 12
-220 0 -237 1 -231 -55 -231 -56 0 -55 -6 -55 230 0 166 3 219 13 223 10 3 26
3 85 -2z m1475 0 c4 -1 6 -101 5 -223 l-3 -222 -47 -3 c-40 -3 -49 0 -59 18
-15 29 -8 417 8 427 9 6 52 7 96 3z m263 -1 c12 0 14 -41 14 -225 l0 -224 -37
4 c-21 2 -46 4 -55 4 -17 1 -18 18 -18 220 0 236 -1 234 54 226 16 -3 35 -5
42 -5z m1479 0 c7 -6 10 -78 8 -212 -2 -112 -3 -208 -3 -214 0 -15 -46 -24
-82 -17 l-28 6 0 218 c0 199 1 218 18 221 34 8 77 7 87 -2z m266 0 c18 -10 19
-23 19 -220 0 -192 -1 -210 -18 -219 -24 -13 -85 -11 -94 3 -9 12 -11 407 -3
428 7 16 70 22 96 8z m2417 -6 c9 -2 12 -55 12 -219 0 -242 2 -235 -73 -219
l-42 9 -3 210 c-2 185 0 211 14 222 14 11 52 9 92 -3z m275 7 c4 -1 7 -100 7
-221 0 -202 -1 -220 -17 -222 -27 -2 -85 1 -89 5 -2 1 -4 99 -4 216 -2 236 -2
234 60 227 19 -3 38 -5 43 -5z m1473 -3 c12 -12 4 -432 -8 -439 -6 -4 -30 -6
-52 -6 l-41 2 -3 219 c-2 153 1 222 9 226 13 9 86 7 95 -2z m272 -222 l-3
-221 -50 0 -50 0 0 220 0 220 30 5 c17 3 40 4 53 2 l22 -4 -2 -222z m1467 4
l0 -225 -29 -3 c-15 -2 -39 -1 -52 2 l-24 6 0 219 c0 166 3 221 13 224 6 3 30
4 52 4 l40 -2 0 -225z m272 216 c4 -3 5 -70 4 -248 l-1 -198 -32 0 c-18 0 -43
3 -55 6 -23 6 -23 7 -23 224 0 200 2 219 18 223 13 4 82 -2 89 -7z m2414 -2
c15 -9 11 -420 -3 -431 -7 -5 -31 -9 -53 -8 l-40 0 -3 219 c-2 164 1 221 10
227 12 8 73 3 89 -7z m262 7 c16 -1 17 -19 17 -220 0 -242 3 -231 -65 -231
-24 0 -38 6 -45 20 -14 26 -12 410 2 427 5 7 24 11 42 9 17 -2 39 -4 49 -5z
m1470 -1 c16 0 17 -15 15 -222 l-3 -223 -48 2 c-27 1 -51 4 -54 7 -3 3 -6 101
-7 217 -1 203 0 212 19 220 11 4 29 6 40 4 11 -3 28 -5 38 -5z m288 -11 c14
-22 11 -413 -3 -427 -7 -7 -26 -12 -44 -12 -67 0 -64 -10 -64 229 0 120 2 220
5 222 11 11 98 1 106 -12z m1472 2 c4 -4 6 -101 5 -216 l-3 -209 -32 -9 c-17
-5 -43 -7 -57 -3 l-26 6 0 219 0 220 23 4 c26 5 79 -2 90 -12z m268 -2 c12
-19 11 -400 -1 -419 -10 -17 -79 -22 -97 -8 -16 13 -18 399 -3 428 8 15 19 19
51 16 23 -2 45 -10 50 -17z m-46913 -1 c9 -9 12 -72 12 -224 0 -236 2 -229
-68 -218 -20 3 -39 8 -42 11 -7 7 -10 370 -3 404 5 27 18 34 69 38 11 0 25 -4
32 -11z m270 4 c9 -7 12 -59 10 -228 l-3 -219 -30 -2 c-16 0 -40 1 -52 4 -23
5 -23 5 -23 223 l0 219 33 4 c17 2 37 4 42 5 6 1 16 -2 23 -6z m1475 -1 c4 -1
7 -100 7 -221 l0 -219 -34 -6 c-74 -14 -70 -24 -76 214 -6 241 -5 245 58 237
21 -3 40 -5 45 -5z m271 -6 c13 -13 15 -48 13 -221 -1 -152 -5 -207 -15 -212
-6 -5 -31 -8 -55 -8 l-42 1 -3 222 -2 222 27 4 c53 8 62 7 77 -8z m1734 7 c9
-7 12 -59 10 -228 l-3 -219 -32 -3 c-18 -2 -41 2 -53 8 -19 10 -20 19 -20 220
0 188 2 210 18 219 21 12 62 14 80 3z m2410 0 l22 -2 0 -220 c0 -188 -2 -220
-15 -221 -8 -1 -32 -2 -52 -3 l-38 -1 -3 215 c-1 118 -1 219 2 225 3 10 20 11
84 7z m280 -1 c9 -1 12 -52 12 -220 0 -237 1 -231 -55 -231 -56 0 -55 -6 -55
230 0 166 3 219 13 223 10 3 26 3 85 -2z m1475 0 c4 -1 6 -101 5 -223 l-3
-222 -45 -3 c-32 -2 -48 1 -56 12 -14 18 -8 426 6 435 6 4 53 5 93 1z m263 -1
c12 0 14 -41 14 -225 l0 -224 -37 4 c-21 2 -46 4 -55 4 -17 1 -18 18 -18 220
0 236 -1 234 54 226 16 -3 35 -5 42 -5z m1479 0 c11 -9 13 -162 5 -426 0 -15
-47 -24 -82 -17 l-28 5 0 219 0 218 23 3 c53 8 71 7 82 -2z m267 -1 c17 -9 18
-27 18 -219 0 -196 -1 -210 -19 -220 -23 -12 -71 -10 -88 3 -8 6 -12 66 -12
213 0 112 2 210 4 216 6 16 72 20 97 7z m2399 1 l29 0 0 -220 c0 -247 3 -240
-73 -224 l-42 9 -3 210 c-2 190 -1 211 15 223 10 7 24 10 31 7 8 -3 27 -5 43
-5z m296 -4 c6 -5 4 -428 -1 -434 -4 -4 -53 -6 -83 -4 l-23 2 0 219 c0 166 3
221 13 224 14 6 86 1 94 -7z m1473 -6 c4 -8 7 -106 6 -218 -1 -226 0 -221 -70
-219 l-41 2 -3 219 c-2 153 1 222 9 226 19 13 90 5 99 -10z m268 -214 l-3
-221 -41 -3 c-26 -2 -45 2 -53 11 -8 11 -11 74 -9 223 l3 209 30 5 c17 3 40 4
53 2 l22 -4 -2 -222z m1467 4 l0 -225 -38 -3 c-66 -6 -67 -4 -67 227 0 146 3
210 12 219 6 6 30 11 52 9 l41 -2 0 -225z m275 213 c7 -7 11 -409 4 -427 -6
-17 -49 -21 -91 -10 -23 6 -23 7 -23 224 0 200 2 219 18 223 18 6 84 -2 92
-10z m2411 1 c11 -6 12 -434 2 -435 -5 0 -28 -1 -53 -2 l-45 -2 -3 219 c-2
164 1 221 10 227 12 8 73 3 89 -7z m262 7 c16 -1 17 -19 17 -220 0 -241 3
-231 -65 -231 -19 0 -37 4 -40 10 -3 5 -6 105 -6 221 0 227 1 230 50 224 14
-1 34 -3 44 -4z m1470 -1 c16 0 17 -17 17 -219 0 -146 -4 -222 -11 -226 -6 -4
-30 -4 -55 0 l-44 6 0 219 c0 200 2 219 18 223 9 3 26 3 37 1 11 -2 28 -4 38
-4z m271 0 l26 -10 0 -208 c0 -148 -3 -211 -12 -220 -13 -13 -49 -15 -85 -6
-23 6 -23 7 -23 225 l0 218 28 4 c15 2 30 5 34 6 4 0 18 -3 32 -9z m1479 0
c16 0 17 -15 15 -217 l-3 -217 -32 -9 c-17 -5 -43 -7 -57 -3 l-26 6 0 219 0
220 23 4 c12 3 31 3 42 1 11 -2 28 -4 38 -4z m275 -3 c9 -7 12 -63 12 -217 0
-154 -3 -210 -12 -217 -7 -5 -31 -9 -53 -8 l-40 0 -3 219 c-2 147 1 222 8 226
17 10 74 8 88 -3z m5870 -204 c2 -196 1 -213 -16 -222 -15 -8 -60 -9 -94 -2
-10 1 -10 425 -1 435 4 4 30 6 58 4 l50 -3 3 -212z m-24640 -10 c2 -196 1
-213 -16 -222 -15 -8 -60 -9 -94 -2 -10 1 -10 425 -1 435 4 4 30 6 58 4 l50
-3 3 -212z m20142 140 c0 -27 -3 -34 -11 -26 -7 7 -9 23 -5 37 9 37 16 32 16
-11z m24190 6 c0 -17 -4 -28 -10 -24 -5 3 -10 17 -10 31 0 13 5 24 10 24 6 0
10 -14 10 -31z m-48830 -16 c0 -27 -3 -34 -11 -26 -7 7 -9 23 -5 37 9 37 16
32 16 -11z m24190 6 c0 -17 -4 -28 -10 -24 -5 3 -10 17 -10 31 0 13 5 24 10
24 6 0 10 -14 10 -31z m24650 -97 c-7 -13 -9 -8 -9 23 0 35 1 37 10 17 6 -15
5 -30 -1 -40z m-24630 7 c0 -10 -4 -19 -10 -19 -5 0 -10 12 -10 26 0 14 4 23
10 19 6 -3 10 -15 10 -26z m24650 -81 c0 -25 -3 -29 -10 -18 -13 20 -13 50 0
50 6 0 10 -15 10 -32z m-24637 9 c3 -8 1 -20 -4 -28 -6 -10 -9 -7 -9 14 0 29
5 35 13 14z m24644 -99 c-2 -13 -4 -5 -4 17 -1 22 1 32 4 23 2 -10 2 -28 0
-40z m-24627 7 c0 -8 -4 -17 -10 -20 -6 -4 -10 5 -10 20 0 15 4 24 10 20 6 -3
10 -12 10 -20z m351 -12 c-9 -16 -10 -14 -11 12 0 21 3 26 11 18 8 -8 8 -16 0
-30z m-24640 -10 c-9 -16 -10 -14 -11 12 0 21 3 26 11 18 8 -8 8 -16 0 -30z
m24589 -244 c0 -11 -4 -18 -10 -14 -5 3 -7 12 -3 20 7 21 13 19 13 -6z
m-24640 -10 c0 -11 -4 -18 -10 -14 -5 3 -7 12 -3 20 7 21 13 19 13 -6z m24640
-46 c0 -21 -3 -24 -9 -14 -5 8 -7 20 -4 28 8 21 13 15 13 -14z m-24640 -10 c0
-21 -3 -24 -9 -14 -5 8 -7 20 -4 28 8 21 13 15 13 -14z m30785 -133 c4 -6 84
-10 206 -10 180 0 204 -2 239 -20 46 -24 59 -40 31 -40 -27 0 -27 -16 -1 -30
11 -6 20 -15 20 -20 0 -6 -227 -10 -615 -10 -422 0 -615 3 -615 10 0 6 14 19
30 28 21 12 29 23 26 35 -11 46 -5 47 209 47 125 0 206 4 210 10 8 13 252 13
260 0z m6172 -1 c7 -7 79 -12 208 -13 187 -1 198 -2 209 -21 6 -11 21 -34 33
-52 13 -17 23 -34 23 -37 0 -3 -272 -6 -605 -6 -387 0 -605 4 -605 10 0 5 11
17 25 26 14 9 25 26 25 38 0 46 5 47 214 45 137 -1 201 2 209 10 15 15 249 15
264 0z m6169 1 c5 -5 98 -11 214 -12 l205 -3 3 -31 c2 -21 11 -35 28 -44 13
-7 24 -19 24 -27 0 -11 -108 -13 -605 -13 -333 0 -605 3 -605 7 0 13 33 43 48
43 9 0 12 6 8 16 -4 9 -4 25 -1 35 6 18 20 19 210 19 125 0 206 4 210 10 8 13
248 13 261 0z m-10562 -23 c207 1 210 0 235 -23 25 -23 30 -24 198 -24 l173 0
0 30 c0 29 2 30 45 30 43 0 45 -1 45 -30 l0 -30 145 0 145 0 0 30 c0 30 1 30
55 30 l55 0 0 -37 0 -36 488 6 c268 4 598 7 735 7 l247 0 0 30 0 31 67 -3 c65
-3 67 -4 75 -34 4 -17 17 -39 28 -49 11 -10 20 -22 20 -27 0 -4 -711 -8 -1580
-8 -869 0 -1580 3 -1580 6 0 3 11 20 24 37 13 18 27 43 31 56 7 22 9 23 74 15
36 -4 160 -7 275 -7z m3046 3 c0 -5 -4 -10 -9 -10 -6 0 -13 5 -16 10 -3 6 1
10 9 10 9 0 16 -4 16 -10z m360 -24 c6 -18 20 -42 30 -51 11 -10 20 -22 20
-27 0 -4 -39 -8 -86 -8 -74 0 -85 2 -80 16 3 9 6 20 6 24 0 5 19 10 42 12 31
2 44 8 46 21 2 12 -3 17 -17 17 -21 0 -27 11 -14 23 17 18 42 5 53 -27z m1760
19 c0 -8 -7 -15 -16 -15 -9 0 -14 -7 -12 -17 2 -12 14 -19 38 -21 32 -3 60
-23 60 -44 0 -4 -38 -8 -85 -8 -47 0 -85 4 -85 8 0 5 8 16 18 25 10 9 24 32
32 52 14 36 50 50 50 20z m330 5 c0 -5 -4 -10 -10 -10 -5 0 -10 5 -10 10 0 6
5 10 10 10 6 0 10 -4 10 -10z m468 -22 l3 -28 412 -2 c227 -1 556 -3 732 -3
l320 0 3 33 c3 31 4 32 53 32 48 0 49 -1 49 -30 l0 -30 145 0 145 0 0 30 c0
29 2 30 45 30 43 0 45 -1 45 -30 l0 -30 197 2 198 3 0 25 c0 25 1 25 65 20 89
-7 351 -4 426 5 l60 7 19 -41 c10 -23 24 -46 32 -52 7 -6 13 -15 13 -20 0 -5
-680 -9 -1580 -9 -869 0 -1580 4 -1580 8 0 5 9 17 20 27 10 9 24 33 31 52 l11
34 66 -3 c65 -3 67 -4 70 -30z m6130 -1 l3 -27 427 2 427 3 3 28 c3 26 6 28
40 25 32 -3 37 -7 40 -31 l3 -28 147 3 147 3 0 25 c0 23 4 25 53 28 l52 3 0
-37 0 -37 482 6 c265 4 595 7 735 7 l253 0 0 30 0 30 65 0 c49 0 67 -4 71 -15
4 -8 12 -15 20 -15 8 0 14 -3 15 -7 3 -29 10 -47 25 -64 17 -19 -8 -19 -1574
-19 -876 0 -1592 3 -1592 6 0 3 11 20 25 38 14 18 25 37 25 42 0 22 27 35 65
32 35 -3 40 -6 43 -31z m-33688 13 c0 -5 -4 -10 -10 -10 -5 0 -10 5 -10 10 0
6 5 10 10 10 6 0 10 -4 10 -10z m2455 0 c-3 -5 -10 -10 -16 -10 -5 0 -9 5 -9
10 0 6 7 10 16 10 8 0 12 -4 9 -10z m16425 -92 c0 -15 -68 -9 -74 7 -3 8 -13
15 -23 15 -13 0 -10 5 12 20 l30 19 27 -26 c16 -15 28 -30 28 -35z m14036 11
c-26 -21 -76 -26 -76 -8 0 7 11 22 25 35 24 23 27 23 50 8 l25 -16 -24 -19z
m-18430 15 c6 -8 17 -14 23 -14 7 0 9 -4 6 -10 -7 -11 -195 -14 -195 -3 0 4
10 17 22 30 19 20 27 22 77 17 31 -4 61 -13 67 -20z m6482 1 c17 -9 32 -21 32
-26 0 -5 -105 -9 -255 -9 -140 0 -255 3 -255 6 0 3 10 17 22 29 22 23 25 23
223 20 161 -3 206 -7 233 -20z m10232 0 c11 -10 20 -22 20 -27 0 -11 -487 -10
-494 1 -21 33 89 49 321 46 113 -1 136 -4 153 -20z m6165 5 c10 -11 24 -20 32
-20 8 0 11 -5 8 -10 -3 -6 -47 -10 -97 -10 -78 0 -89 2 -84 16 3 9 6 20 6 24
0 5 19 11 43 13 23 2 49 4 58 5 9 1 24 -7 34 -18z m-22563 -7 c10 -9 18 -20
18 -25 0 -4 -40 -8 -90 -8 -53 0 -90 4 -90 10 0 6 5 10 10 10 6 0 10 7 10 15
0 22 117 21 142 -2z m3693 7 c13 -21 -17 -40 -61 -40 -48 0 -52 4 -27 32 18
20 78 25 88 8z m6223 -17 c3 -22 1 -23 -82 -23 -89 0 -102 7 -63 35 15 11 40
15 82 13 54 -3 60 -5 63 -25z m2420 11 c38 -27 25 -34 -63 -34 -84 0 -91 3
-79 34 8 22 111 22 142 0z m6170 0 c33 -23 27 -34 -21 -34 -43 0 -87 27 -70
43 12 13 68 7 91 -9z m3751 -3 c11 -11 17 -22 14 -25 -11 -11 -173 -7 -173 4
0 26 27 39 83 40 43 0 62 -5 76 -19z"/>
<path d="M47709 1139 c0 -13 -1 -57 -2 -96 -2 -49 1 -73 9 -73 11 0 11 176 -1
188 -3 3 -5 -6 -6 -19z"/>
<path d="M44338 1103 c7 -3 16 -2 19 1 4 3 -2 6 -13 5 -11 0 -14 -3 -6 -6z"/>
<path d="M48545 1100 c3 -5 10 -10 16 -10 5 0 9 5 9 10 0 6 -7 10 -16 10 -8 0
-12 -4 -9 -10z"/>
<path d="M48835 1100 c-3 -5 -1 -10 4 -10 6 0 11 5 11 10 0 6 -2 10 -4 10 -3
0 -8 -4 -11 -10z"/>
<path d="M48728 1093 c7 -3 16 -2 19 1 4 3 -2 6 -13 5 -11 0 -14 -3 -6 -6z"/>
<path d="M48768 1093 c6 -2 18 -2 25 0 6 3 1 5 -13 5 -14 0 -19 -2 -12 -5z"/>
<path d="M45379 1064 c-20 -24 -6 -49 29 -52 32 -3 33 -2 30 30 -2 26 -8 33
-25 34 -13 1 -28 -5 -34 -12z m41 -29 c-12 -15 -30 -12 -30 6 0 5 10 9 21 9
18 0 19 -2 9 -15z"/>
<path d="M47133 1074 c-18 -8 -16 -61 1 -67 8 -3 24 -3 36 0 17 4 20 12 18 37
-3 31 -25 43 -55 30z m35 -35 c-2 -6 -8 -10 -13 -10 -5 0 -11 4 -13 10 -2 6 4
11 13 11 9 0 15 -5 13 -11z"/>
<path d="M43477 975 c-12 -12 -16 -48 -16 -173 -1 -88 3 -171 8 -185 l11 -27
310 0 310 0 9 23 c10 26 7 334 -4 360 -7 16 -31 17 -310 17 -255 0 -306 -2
-318 -15z m603 -185 l0 -160 -292 0 -293 0 2 157 c0 87 2 159 2 161 1 1 132 2
291 2 l290 0 0 -160z"/>
<path d="M44905 974 c-12 -13 -15 -48 -15 -188 0 -120 4 -176 12 -184 17 -17
429 -17 446 0 8 8 12 64 12 184 0 144 -3 175 -16 188 -23 23 -416 22 -439 0z
m410 -66 c0 -16 -3 -28 -7 -28 -5 0 -93 0 -196 0 -173 0 -189 1 -189 18 -3 42
-2 43 199 40 l193 -3 0 -27z m7 -170 c2 -57 3 -104 2 -106 -1 -2 -344 -4 -391
-3 -10 1 -13 29 -13 106 l0 105 199 0 199 0 4 -102z"/>
<path d="M45475 977 c-12 -7 -15 -38 -15 -185 0 -125 4 -182 12 -190 17 -17
429 -17 446 0 15 15 17 345 2 368 -8 13 -44 15 -220 15 -115 1 -217 -3 -225
-8z m100 -65 c9 -23 -8 -34 -46 -30 -26 2 -35 8 -37 24 -3 19 2 21 37 21 27 0
42 -5 46 -15z m153 8 c12 0 25 -7 29 -16 7 -20 -11 -39 -29 -28 -7 5 -25 7
-40 5 -29 -3 -43 12 -34 36 4 10 13 13 29 9 12 -3 32 -6 45 -6z m70 -19 c3 -8
-1 -12 -9 -9 -7 2 -15 10 -17 17 -3 8 1 12 9 9 7 -2 15 -10 17 -17z m94 -163
c2 -57 2 -104 1 -106 -1 -3 -312 -4 -395 -2 -5 0 -8 47 -8 105 l0 105 199 0
200 0 3 -102z"/>
<path d="M46657 977 c-16 -11 -17 -32 -15 -197 l3 -185 225 0 225 0 3 189 c1
123 -1 192 -8 196 -6 3 -102 7 -213 8 -149 1 -208 -1 -220 -11z m408 -72 l0
-30 -195 0 c-180 0 -195 1 -198 18 -9 47 -4 48 200 45 l193 -3 0 -30z m3 -172
l-3 -106 -195 1 -195 2 -3 105 -3 105 201 0 201 0 -3 -107z"/>
<path d="M47220 975 c-15 -19 -14 -353 2 -372 13 -16 433 -19 443 -3 12 19 6
362 -6 377 -17 20 -422 18 -439 -2z m418 -186 l-3 -161 -195 1 -195 1 -3 160
-2 160 200 0 200 0 -2 -161z"/>
<path d="M47698 923 c-3 -7 -3 -30 1 -125 1 -21 5 -25 21 -21 19 5 21 12 18
77 -2 56 -6 71 -20 74 -9 2 -18 -1 -20 -5z m27 -113 c3 -5 1 -10 -4 -10 -6 0
-11 5 -11 10 0 6 2 10 4 10 3 0 8 -4 11 -10z"/>
<path d="M45445 558 c-28 -15 -28 -14 -20 -37 3 -12 15 -21 26 -21 15 0 19 7
19 35 0 19 -1 35 -2 35 -2 0 -12 -6 -23 -12z"/>
<path d="M48973 560 c21 -13 23 -40 2 -40 -8 0 -15 -4 -15 -10 0 -16 26 -12
41 6 16 19 1 48 -27 52 -18 3 -18 2 -1 -8z"/>
<path d="M45379 546 c15 -18 15 -18 -14 -34 -18 -10 -17 -11 10 -12 27 0 31 3
29 28 0 18 -7 28 -20 31 -16 3 -17 1 -5 -13z"/>
<path d="M47346 535 c4 -8 8 -15 10 -15 2 0 4 7 4 15 0 8 -4 15 -10 15 -5 0
-7 -7 -4 -15z"/>
<path d="M47384 541 c-2 -2 -4 -10 -4 -17 0 -9 28 -12 105 -13 83 0 105 3 105
14 0 11 -23 14 -101 17 -55 2 -103 1 -105 -1z"/>
<path d="M48941 534 c0 -11 3 -14 6 -6 3 7 2 16 -1 19 -3 4 -6 -2 -5 -13z"/>
<path d="M46775 530 c3 -5 15 -10 26 -10 10 0 19 5 19 10 0 6 -12 10 -26 10
-14 0 -23 -4 -19 -10z"/>
<path d="M46850 515 c0 -12 13 -15 66 -15 48 0 65 3 62 13 -3 7 -28 13 -66 15
-51 2 -62 0 -62 -13z"/>
<path d="M19698 1093 c7 -3 16 -2 19 1 4 3 -2 6 -13 5 -11 0 -14 -3 -6 -6z"/>
<path d="M23062 1088 c5 -15 28 -18 29 -3 0 6 -7 12 -17 13 -10 3 -15 -1 -12
-10z"/>
<path d="M23905 1090 c3 -5 10 -10 16 -10 5 0 9 5 9 10 0 6 -7 10 -16 10 -8 0
-12 -4 -9 -10z"/>
<path d="M24133 1083 c9 -2 23 -2 30 0 6 3 -1 5 -18 5 -16 0 -22 -2 -12 -5z"/>
<path d="M20739 1043 c-12 -33 -1 -46 37 -41 21 2 29 8 29 23 1 49 -49 63 -66
18z m43 -15 c-9 -9 -15 -9 -24 0 -9 9 -7 12 12 12 19 0 21 -3 12 -12z"/>
<path d="M22492 1058 c-18 -18 -15 -56 6 -60 37 -8 53 3 50 36 -3 34 -33 47
-56 24z m36 -29 c-2 -6 -8 -10 -13 -10 -5 0 -11 4 -13 10 -2 6 4 11 13 11 9 0
15 -5 13 -11z"/>
<path d="M23071 1034 c0 -11 3 -14 6 -6 3 7 2 16 -1 19 -3 4 -6 -2 -5 -13z"/>
<path d="M23063 985 c-7 -20 2 -29 21 -22 9 4 13 13 10 22 -8 19 -23 19 -31 0z"/>
<path d="M18842 971 c-11 -6 -14 -50 -15 -187 0 -99 3 -185 7 -192 5 -9 85
-12 316 -12 296 0 310 1 320 19 6 11 10 89 10 181 0 92 -4 170 -10 181 -10 18
-24 19 -313 19 -166 0 -308 -4 -315 -9z m598 -191 l0 -160 -289 0 c-160 0
-291 3 -293 8 -2 4 -2 76 0 160 l3 152 290 0 289 0 0 -160z"/>
<path d="M20265 964 c-12 -13 -15 -48 -15 -188 0 -120 4 -176 12 -184 13 -13
411 -18 442 -6 14 5 16 32 16 190 0 171 -1 184 -19 194 -12 6 -99 10 -220 9
-165 0 -204 -3 -216 -15z m413 -66 c-2 -18 -6 -32 -10 -30 -5 1 -91 2 -192 2
l-184 0 -4 25 c-3 13 -3 27 0 30 3 3 93 5 199 5 l194 0 -3 -32z m9 -175 c2
-57 -1 -103 -5 -103 -30 -1 -380 -1 -390 -1 -9 1 -12 25 -11 99 1 53 4 100 6
105 3 4 93 6 201 5 l197 -3 2 -102z"/>
<path d="M20834 962 c-19 -18 -20 -352 -2 -370 17 -17 429 -17 446 0 17 17 17
364 0 375 -7 4 -107 8 -222 8 -163 1 -212 -2 -222 -13z m97 -59 c18 -18 1 -33
-36 -33 -36 0 -50 12 -42 34 7 16 61 16 78 -1z m183 -4 c13 -12 -2 -42 -16
-33 -7 4 -27 7 -44 6 -35 -3 -47 8 -38 32 5 12 15 15 48 10 22 -4 45 -10 50
-15z m46 -5 c0 -17 -22 -14 -28 4 -2 7 3 12 12 12 9 0 16 -7 16 -16z m90 -81
c0 -10 2 -57 3 -106 1 -52 -2 -87 -8 -87 -9 -1 -373 -1 -385 0 -4 0 -4 191 -1
208 1 1 89 2 196 2 179 0 195 -1 195 -17z"/>
<path d="M22023 970 c-23 -9 -23 -12 -23 -194 0 -158 2 -185 16 -190 9 -3 110
-6 224 -6 189 0 210 2 218 18 15 28 10 361 -6 371 -17 11 -402 12 -429 1z
m409 -71 c3 -18 0 -33 -6 -35 -7 -3 -97 -3 -201 -2 -174 3 -190 5 -193 21 -9
46 -4 47 202 47 l194 0 4 -31z m-4 -176 c-3 -96 -5 -108 -20 -107 -10 0 -98 1
-197 2 l-178 2 -1 97 c0 53 2 101 4 105 3 4 93 8 200 8 l195 0 -3 -107z"/>
<path d="M22581 967 c-16 -16 -15 -359 1 -375 9 -9 73 -12 225 -12 201 0 213
1 223 20 16 30 6 360 -12 371 -20 14 -423 10 -437 -4z m417 -189 c-2 -123 -6
-163 -15 -162 -7 1 -95 2 -196 3 l-183 1 2 158 c1 86 2 158 3 160 0 1 89 2
196 2 l195 0 -2 -162z"/>
<path d="M23060 871 c0 -28 0 -54 0 -58 0 -5 4 -8 9 -8 5 0 13 -3 17 -7 4 -5
0 -8 -9 -8 -9 0 -17 -4 -17 -10 0 -5 9 -10 20 -10 19 0 21 5 18 72 -2 60 -6
73 -20 76 -15 3 -18 -4 -18 -47z"/>
<path d="M24340 541 l25 -21 -22 -6 c-13 -3 -23 -10 -23 -15 0 -15 27 -10 41
7 16 19 2 47 -27 53 -16 3 -15 0 6 -18z"/>
<path d="M20741 534 c11 -14 10 -18 -6 -30 -18 -13 -18 -14 6 -14 22 0 26 5
26 30 0 23 -5 30 -20 30 -17 0 -18 -2 -6 -16z"/>
<path d="M20791 541 c-19 -12 -4 -51 20 -51 14 0 19 7 19 30 0 30 -13 37 -39
21z"/>
<path d="M22744 531 c-2 -2 -4 -10 -4 -17 0 -11 24 -13 105 -11 60 1 106 6
108 12 2 10 -200 25 -209 16z"/>
<path d="M22135 520 c3 -5 15 -10 26 -10 10 0 19 5 19 10 0 6 -12 10 -26 10
-14 0 -23 -4 -19 -10z"/>
<path d="M22217 514 c-18 -18 -2 -24 59 -24 48 0 65 3 62 13 -5 13 -109 23
-121 11z"/>
<path d="M25210 566 c0 -10 28 -13 41 -5 10 6 7 9 -13 9 -16 0 -28 -2 -28 -4z"/>
<path d="M48695 998 c-3 -13 -4 -75 -3 -138 l3 -115 75 0 75 0 3 124 c2 82 -1
128 -9 137 -8 9 -33 14 -75 14 -58 0 -64 -2 -69 -22z m120 -118 l0 -105 -47
-3 -48 -3 0 111 0 110 48 -3 47 -3 0 -104z"/>
<path d="M48808 563 c6 -2 18 -2 25 0 6 3 1 5 -13 5 -14 0 -19 -2 -12 -5z"/>
<path d="M570 556 c0 -10 28 -13 41 -5 10 6 7 9 -13 9 -16 0 -28 -2 -28 -4z"/>
<path d="M24055 988 c-3 -13 -4 -75 -3 -138 l3 -115 75 0 75 0 3 124 c2 82 -1
128 -9 137 -8 9 -33 14 -75 14 -58 0 -64 -2 -69 -22z m120 -118 l0 -105 -45 0
-45 0 -3 94 c-1 52 0 101 2 108 4 9 19 13 48 11 l43 -3 0 -105z"/>
<path d="M24173 553 c9 -2 23 -2 30 0 6 3 -1 5 -18 5 -16 0 -22 -2 -12 -5z"/>
<path d="M26870 1203 c1316 -7 3850 -7 3850 0 0 4 -980 6 -2177 5 -1198 -2
-1951 -4 -1673 -5z"/>
<path d="M30990 1194 c0 -8 5 -12 10 -9 6 3 10 10 10 16 0 5 -4 9 -10 9 -5 0
-10 -7 -10 -16z"/>
<path d="M33209 1203 c1577 -2 2147 -6 2152 -14 7 -13 29 -4 29 12 0 5 -816 8
-2162 7 l-2163 -3 2144 -2z"/>
<path d="M35773 1203 c208 -2 546 -2 750 0 205 1 35 2 -378 2 -412 0 -580 -1
-372 -2z"/>
<path d="M37939 1203 c551 -3 718 -6 729 -16 12 -9 16 -9 19 1 6 17 4343 18
4361 0 9 -9 12 -8 12 5 0 16 -177 17 -2917 15 -1605 -2 -2597 -4 -2204 -5z"/>
<path d="M2230 1193 c1316 -7 3850 -7 3850 0 0 4 -980 6 -2177 5 -1198 -2
-1951 -4 -1673 -5z"/>
<path d="M6350 1184 c0 -8 5 -12 10 -9 6 3 10 10 10 16 0 5 -4 9 -10 9 -5 0
-10 -7 -10 -16z"/>
<path d="M8569 1193 c1577 -2 2147 -6 2152 -14 7 -13 29 -4 29 12 0 5 -816 8
-2162 7 l-2163 -3 2144 -2z"/>
<path d="M11133 1193 c208 -2 546 -2 750 0 205 1 35 2 -378 2 -412 0 -580 -1
-372 -2z"/>
<path d="M13299 1193 c520 -2 718 -6 728 -15 10 -8 17 -8 25 0 18 18 4339 17
4356 0 9 -9 12 -8 12 5 0 16 -177 17 -2917 15 -1605 -2 -2597 -4 -2204 -5z"/>
<path d="M35367 1163 c-2 -4 -5 -50 -5 -100 -1 -68 2 -93 12 -93 9 0 11 24 9
96 -2 93 -6 115 -16 97z"/>
<path d="M38682 1143 c-1 -17 -7 -35 -12 -38 -8 -5 -8 -11 -1 -19 13 -15 12
-54 -2 -84 -7 -15 -7 -26 0 -33 20 -20 28 17 22 111 -3 52 -6 81 -7 63z"/>
<path d="M10727 1153 c-2 -4 -5 -50 -5 -100 -1 -71 2 -93 12 -93 10 0 13 22
10 96 -4 94 -7 114 -17 97z"/>
<path d="M14040 1134 c0 -17 -5 -35 -11 -41 -8 -8 -8 -13 0 -17 14 -9 14 -73
1 -81 -17 -10 -11 -37 7 -33 15 3 17 16 15 97 -1 52 -4 96 -7 99 -3 3 -5 -8
-5 -24z"/>
<path d="M25125 1100 c-3 -5 -2 -10 4 -10 5 0 13 5 16 10 3 6 2 10 -4 10 -5 0
-13 -4 -16 -10z"/>
<path d="M25265 1100 c-4 -6 7 -10 27 -9 27 0 30 2 13 9 -27 12 -33 12 -40 0z"/>
<path d="M25405 1100 c3 -5 8 -10 11 -10 2 0 4 5 4 10 0 6 -5 10 -11 10 -5 0
-7 -4 -4 -10z"/>
<path d="M25448 1103 c7 -3 16 -2 19 1 4 3 -2 6 -13 5 -11 0 -14 -3 -6 -6z"/>
<path d="M26270 1100 c20 -13 33 -13 25 0 -3 6 -14 10 -23 10 -15 0 -15 -2 -2
-10z"/>
<path d="M26925 1100 c3 -5 14 -10 23 -10 15 0 15 2 2 10 -20 13 -33 13 -25 0z"/>
<path d="M29498 1103 c7 -3 16 -2 19 1 4 3 -2 6 -13 5 -11 0 -14 -3 -6 -6z"/>
<path d="M31936 1101 c-4 -5 3 -7 14 -4 23 6 26 13 6 13 -8 0 -17 -4 -20 -9z"/>
<path d="M32398 1103 c6 -2 18 -2 25 0 6 3 1 5 -13 5 -14 0 -19 -2 -12 -5z"/>
<path d="M32455 1100 c3 -5 11 -10 16 -10 6 0 7 5 4 10 -3 6 -11 10 -16 10 -6
0 -7 -4 -4 -10z"/>
<path d="M33010 1100 c0 -5 4 -10 9 -10 6 0 13 5 16 10 3 6 -1 10 -9 10 -9 0
-16 -4 -16 -10z"/>
<path d="M33748 1103 c6 -2 18 -2 25 0 6 3 1 5 -13 5 -14 0 -19 -2 -12 -5z"/>
<path d="M34190 1100 c20 -13 33 -13 25 0 -3 6 -14 10 -23 10 -15 0 -15 -2 -2
-10z"/>
<path d="M34845 1100 c3 -5 8 -10 11 -10 2 0 4 5 4 10 0 6 -5 10 -11 10 -5 0
-7 -4 -4 -10z"/>
<path d="M35415 1100 c-3 -5 -1 -10 4 -10 6 0 11 5 11 10 0 6 -2 10 -4 10 -3
0 -8 -4 -11 -10z"/>
<path d="M36388 1103 c7 -3 16 -2 19 1 4 3 -2 6 -13 5 -11 0 -14 -3 -6 -6z"/>
<path d="M42018 1103 c6 -2 18 -2 25 0 6 3 1 5 -13 5 -14 0 -19 -2 -12 -5z"/>
<path d="M485 1090 c-3 -5 -2 -10 4 -10 5 0 13 5 16 10 3 6 2 10 -4 10 -5 0
-13 -4 -16 -10z"/>
<path d="M625 1090 c-4 -6 7 -10 27 -9 27 0 30 2 13 9 -27 12 -33 12 -40 0z"/>
<path d="M765 1090 c3 -5 8 -10 11 -10 2 0 4 5 4 10 0 6 -5 10 -11 10 -5 0 -7
-4 -4 -10z"/>
<path d="M808 1093 c7 -3 16 -2 19 1 4 3 -2 6 -13 5 -11 0 -14 -3 -6 -6z"/>
<path d="M1630 1090 c20 -13 33 -13 25 0 -3 6 -14 10 -23 10 -15 0 -15 -2 -2
-10z"/>
<path d="M2285 1090 c3 -5 14 -10 23 -10 15 0 15 2 2 10 -20 13 -33 13 -25 0z"/>
<path d="M4858 1093 c7 -3 16 -2 19 1 4 3 -2 6 -13 5 -11 0 -14 -3 -6 -6z"/>
<path d="M7296 1091 c-4 -5 3 -7 14 -4 23 6 26 13 6 13 -8 0 -17 -4 -20 -9z"/>
<path d="M7758 1093 c6 -2 18 -2 25 0 6 3 1 5 -13 5 -14 0 -19 -2 -12 -5z"/>
<path d="M7815 1090 c3 -5 11 -10 16 -10 6 0 7 5 4 10 -3 6 -11 10 -16 10 -6
0 -7 -4 -4 -10z"/>
<path d="M8370 1090 c0 -5 4 -10 9 -10 6 0 13 5 16 10 3 6 -1 10 -9 10 -9 0
-16 -4 -16 -10z"/>
<path d="M9108 1093 c6 -2 18 -2 25 0 6 3 1 5 -13 5 -14 0 -19 -2 -12 -5z"/>
<path d="M9550 1090 c20 -13 33 -13 25 0 -3 6 -14 10 -23 10 -15 0 -15 -2 -2
-10z"/>
<path d="M10775 1090 c-3 -5 -1 -10 4 -10 6 0 11 5 11 10 0 6 -2 10 -4 10 -3
0 -8 -4 -11 -10z"/>
<path d="M11748 1093 c7 -3 16 -2 19 1 4 3 -2 6 -13 5 -11 0 -14 -3 -6 -6z"/>
<path d="M17378 1093 c6 -2 18 -2 25 0 6 3 1 5 -13 5 -14 0 -19 -2 -12 -5z"/>
<path d="M25358 1093 c7 -3 16 -2 19 1 4 3 -2 6 -13 5 -11 0 -14 -3 -6 -6z"/>
<path d="M718 1083 c7 -3 16 -2 19 1 4 3 -2 6 -13 5 -11 0 -14 -3 -6 -6z"/>
<path d="M26874 1068 c-17 -27 -14 -49 9 -57 34 -13 48 -2 45 33 -2 23 -9 32
-25 34 -11 2 -25 -3 -29 -10z m39 -33 c-6 -17 -25 -15 -31 3 -2 7 5 12 17 12
14 0 19 -5 14 -15z"/>
<path d="M28616 1073 c-11 -11 -6 -61 6 -65 7 -3 23 -2 36 0 19 4 23 10 20 36
-2 25 -8 31 -30 33 -14 1 -29 -1 -32 -4z m39 -43 c-5 -8 -11 -8 -17 -2 -6 6
-7 16 -3 22 5 8 11 8 17 2 6 -6 7 -16 3 -22z"/>
<path d="M33048 1069 c-10 -5 -18 -21 -18 -34 0 -22 4 -25 36 -25 34 0 35 1
32 32 -3 35 -21 45 -50 27z m32 -35 c0 -14 -3 -14 -15 -4 -8 7 -15 14 -15 16
0 2 7 4 15 4 8 0 15 -7 15 -16z"/>
<path d="M34798 1073 c-12 -3 -18 -14 -18 -33 0 -21 5 -29 24 -32 35 -7 48 5
44 38 -3 29 -17 36 -50 27z m30 -34 c-2 -6 -8 -10 -13 -10 -5 0 -11 4 -13 10
-2 6 4 11 13 11 9 0 15 -5 13 -11z"/>
<path d="M39207 1073 c-13 -12 -7 -61 7 -66 8 -3 24 -3 35 0 30 8 29 58 -1 67
-29 7 -33 7 -41 -1z m41 -34 c-2 -6 -8 -10 -13 -10 -5 0 -11 4 -13 10 -2 6 4
11 13 11 9 0 15 -5 13 -11z"/>
<path d="M40957 1068 c-22 -17 -12 -54 16 -62 28 -7 48 11 43 38 -3 11 -5 24
-5 29 -1 11 -36 8 -54 -5z m37 -33 c-4 -8 -10 -15 -15 -15 -5 0 -9 7 -9 15 0
8 7 15 15 15 9 0 12 -6 9 -15z"/>
<path d="M2234 1058 c-17 -27 -14 -49 9 -57 34 -13 48 -2 45 33 -2 23 -9 32
-25 34 -11 2 -25 -3 -29 -10z m39 -33 c-6 -17 -25 -15 -31 3 -2 7 5 12 17 12
14 0 19 -5 14 -15z"/>
<path d="M3976 1063 c-11 -11 -6 -61 6 -65 7 -3 23 -2 36 0 19 4 23 10 20 36
-2 25 -8 31 -30 33 -14 1 -29 -1 -32 -4z m39 -43 c-5 -8 -11 -8 -17 -2 -6 6
-7 16 -3 22 5 8 11 8 17 2 6 -6 7 -16 3 -22z"/>
<path d="M8408 1059 c-10 -5 -18 -21 -18 -34 0 -22 4 -25 36 -25 34 0 35 1 32
32 -3 35 -21 45 -50 27z m32 -35 c0 -14 -3 -14 -15 -4 -8 7 -15 14 -15 16 0 2
7 4 15 4 8 0 15 -7 15 -16z"/>
<path d="M10158 1063 c-27 -7 -23 -52 5 -62 34 -13 48 -2 45 33 -3 31 -16 38
-50 29z m32 -38 c-12 -15 -30 -12 -30 6 0 5 10 9 21 9 18 0 19 -2 9 -15z"/>
<path d="M14567 1063 c-4 -3 -7 -19 -7 -34 0 -28 18 -39 53 -31 27 7 23 58 -5
66 -29 7 -33 7 -41 -1z m41 -34 c-2 -6 -8 -10 -13 -10 -5 0 -11 4 -13 10 -2 6
4 11 13 11 9 0 15 -5 13 -11z"/>
<path d="M16330 1063 c-34 -13 -33 -57 3 -67 28 -7 48 11 43 38 -3 11 -5 24
-5 29 -1 8 -19 8 -41 0z m24 -38 c-4 -8 -10 -12 -15 -9 -14 8 -10 24 6 24 9 0
12 -6 9 -15z"/>
<path d="M36325 1060 c-3 -5 -1 -10 4 -10 6 0 11 5 11 10 0 6 -2 10 -4 10 -3
0 -8 -4 -11 -10z"/>
<path d="M37719 1068 c-7 -26 -2 -58 8 -58 15 0 18 46 3 55 -5 3 -10 5 -11 3z"/>
<path d="M11685 1050 c-3 -5 -1 -10 4 -10 6 0 11 5 11 10 0 6 -2 10 -4 10 -3
0 -8 -4 -11 -10z"/>
<path d="M13080 1036 c0 -19 -6 -26 -27 -29 -23 -3 -21 -4 10 -6 33 -1 37 2
37 23 0 14 -4 28 -10 31 -6 3 -10 -5 -10 -19z"/>
<path d="M36367 1054 c-3 -3 -3 -13 0 -21 5 -13 1 -15 -20 -11 -15 3 -27 1
-27 -3 0 -5 13 -9 29 -9 20 0 30 6 34 20 5 20 -5 35 -16 24z"/>
<path d="M11728 1044 c-4 -3 -4 -13 -1 -21 5 -13 1 -15 -20 -11 -15 3 -27 1
-27 -3 0 -17 58 -10 64 8 7 17 -6 38 -16 27z"/>
<path d="M37668 1043 c7 -3 16 -2 19 1 4 3 -2 6 -13 5 -11 0 -14 -3 -6 -6z"/>
<path d="M13028 1033 c7 -3 16 -2 19 1 4 3 -2 6 -13 5 -11 0 -14 -3 -6 -6z"/>
<path d="M37670 1020 c0 -6 7 -10 15 -10 8 0 15 2 15 4 0 2 -7 6 -15 10 -8 3
-15 1 -15 -4z"/>
<path d="M26397 979 c-15 -9 -17 -30 -17 -187 0 -125 4 -182 12 -190 9 -9 73
-12 225 -12 192 0 213 2 221 18 6 9 9 95 8 190 -1 134 -4 175 -15 181 -19 12
-413 11 -434 0z m411 -69 l-3 -31 -193 -2 -192 -2 0 33 0 32 196 0 195 0 -3
-30z m2 -177 l0 -108 -187 2 c-104 1 -193 2 -199 3 -7 0 -10 35 -9 103 1 56 3
103 4 105 0 1 89 2 196 2 l195 0 0 -107z"/>
<path d="M26978 980 c-23 -6 -23 -7 -26 -190 -2 -140 1 -185 10 -192 22 -13
432 -10 446 4 15 15 17 345 2 368 -8 13 -42 15 -209 15 -110 0 -210 -2 -223
-5z m78 -63 c15 -14 -7 -37 -35 -37 -32 0 -46 13 -38 34 5 13 61 15 73 3z
m165 3 c22 0 29 -5 29 -20 0 -17 -7 -20 -49 -20 -32 0 -51 5 -54 14 -7 18 13
38 31 31 8 -3 27 -5 43 -5z m69 -21 c0 -11 -4 -17 -10 -14 -5 3 -10 13 -10 21
0 8 5 14 10 14 6 0 10 -9 10 -21z m88 -165 l-3 -107 -194 1 -194 0 0 99 c1 54
2 101 2 106 1 4 89 7 196 7 l196 0 -3 -106z"/>
<path d="M28139 974 c-6 -7 -8 -84 -7 -195 l3 -184 205 -3 c113 -1 215 0 228
3 22 5 22 7 22 190 0 176 -1 185 -21 195 -29 16 -416 11 -430 -6z m421 -69 l0
-35 -197 2 -198 3 -3 33 -3 32 200 0 201 0 0 -35z m-2 -171 l-3 -106 -195 0
-195 1 -3 105 -3 106 201 0 201 0 -3 -106z"/>
<path d="M28718 983 c-16 -4 -18 -22 -18 -193 0 -162 2 -189 16 -194 9 -3 109
-6 224 -6 205 0 209 0 216 22 3 12 6 96 6 187 0 146 -3 167 -18 178 -13 10
-68 13 -213 12 -108 -1 -204 -3 -213 -6z m410 -194 l-3 -160 -195 0 -195 0 -3
160 -2 161 200 0 200 0 -2 -161z"/>
<path d="M29963 979 c-23 -8 -23 -11 -23 -187 0 -125 4 -182 12 -190 19 -19
611 -17 627 2 8 9 11 69 9 192 l-3 178 -30 8 c-40 11 -564 9 -592 -3z m595
-190 l-3 -161 -285 1 c-157 1 -288 1 -292 1 -5 0 -8 72 -8 160 l0 160 295 0
295 0 -2 -161z"/>
<path d="M31138 979 c-16 -9 -18 -29 -18 -187 0 -125 4 -182 12 -190 9 -9 94
-12 320 -12 l308 0 10 26 c6 14 10 96 10 183 0 140 -2 160 -18 174 -16 15 -53
17 -313 17 -181 0 -301 -5 -311 -11z m600 -191 c-2 -90 -6 -162 -10 -160 -5 1
-134 2 -288 2 l-280 0 0 160 0 160 290 0 290 0 -2 -162z"/>
<path d="M32595 981 l-40 -6 -3 -179 c-2 -123 1 -183 9 -192 9 -11 56 -14 225
-14 201 0 214 1 224 19 6 11 10 90 10 185 0 133 -3 167 -15 180 -12 12 -47 14
-192 14 -98 -1 -196 -4 -218 -7z m388 -68 c3 -16 4 -29 3 -30 -1 -1 -92 -3
-201 -3 -178 -2 -200 0 -203 15 -9 43 -2 45 202 45 l194 0 5 -27z m5 -180 l3
-103 -196 0 c-107 0 -198 -1 -202 -2 -9 -3 -16 178 -9 199 5 11 45 13 203 11
l198 -3 3 -102z"/>
<path d="M33136 978 c-14 -8 -16 -35 -16 -192 0 -158 2 -185 16 -190 9 -3 110
-6 225 -6 l209 0 10 25 c10 26 6 352 -4 362 -10 10 -422 11 -440 1z m259 -59
c35 3 56 -16 34 -30 -7 -4 -35 -8 -61 -7 -43 0 -48 2 -48 22 0 30 10 38 28 24
8 -7 29 -11 47 -9z m-183 -1 c22 0 28 -3 26 -16 -2 -12 -15 -18 -46 -20 -35
-2 -42 0 -42 16 0 23 9 33 23 25 5 -3 23 -6 39 -5z m346 -185 c1 -65 -1 -103
-8 -103 -5 0 -97 -1 -202 -1 l-193 0 -3 106 -3 105 203 -2 203 -3 3 -102z"/>
<path d="M34306 967 c-18 -28 -22 -326 -6 -357 11 -20 19 -20 233 -18 l222 3
3 185 c2 166 1 186 -15 198 -13 9 -70 12 -220 12 -198 -1 -204 -2 -217 -23z
m424 -61 l0 -35 -200 -1 -200 0 0 35 0 35 200 0 200 0 0 -34z m0 -171 l0 -105
-172 -1 c-95 -1 -184 -2 -198 -2 -25 -1 -25 -1 -28 106 l-3 107 201 0 200 0 0
-105z"/>
<path d="M34881 971 c-18 -18 -19 -33 -18 -190 1 -105 6 -174 13 -181 7 -7 84
-9 230 -8 l219 3 3 189 c2 133 -1 192 -9 197 -6 3 -103 7 -215 8 -189 2 -204
1 -223 -18z m419 -181 c0 -153 -1 -160 -20 -160 -11 0 -100 -1 -197 -1 l-178
0 -3 160 -2 161 200 0 200 0 0 -160z"/>
<path d="M36127 978 c-15 -8 -17 -32 -17 -192 0 -158 2 -185 16 -190 9 -3 150
-6 314 -6 248 0 301 2 313 15 22 21 24 328 3 360 l-15 23 -299 0 c-165 0 -306
-5 -315 -10z m603 -187 l0 -158 -87 -6 c-111 -6 -480 -4 -487 4 -5 4 -11 283
-7 312 1 4 132 7 291 7 l290 0 0 -159z"/>
<path d="M37302 978 c-8 -8 -12 -69 -12 -194 0 -157 2 -183 16 -188 9 -3 149
-6 313 -6 218 0 300 3 309 12 17 17 17 364 0 375 -22 13 -613 14 -626 1z m603
-193 l0 -160 -290 0 -290 1 -3 162 -2 162 292 -2 293 -3 0 -160z"/>
<path d="M38730 975 c-7 -8 -10 -76 -8 -196 l3 -184 223 -3 222 -2 11 27 c16
42 9 329 -8 354 -14 18 -26 19 -223 18 -158 0 -212 -4 -220 -14z m420 -65 l0
-29 -177 -3 c-214 -4 -223 -3 -223 26 0 13 3 26 7 29 3 4 93 7 200 7 l193 0 0
-30z m-2 -176 l-3 -106 -195 1 -195 0 -3 106 -3 105 201 0 201 0 -3 -106z"/>
<path d="M39301 973 c-14 -10 -16 -37 -16 -180 1 -92 4 -176 8 -186 6 -15 26
-17 226 -17 137 0 222 4 226 10 11 18 6 363 -6 375 -15 15 -417 14 -438 -2z
m99 -69 c0 -18 -6 -22 -40 -22 -35 -1 -40 2 -40 22 0 21 5 23 40 22 34 -1 40
-4 40 -22z m183 15 c12 0 17 -6 15 -17 -2 -13 -16 -18 -52 -20 -52 -3 -72 7
-63 31 4 11 16 14 44 10 21 -2 46 -4 56 -4z m135 -184 l-3 -106 -193 0 c-106
0 -196 2 -200 5 -4 2 -6 49 -4 105 l3 101 200 0 200 0 -3 -105z"/>
<path d="M40475 974 c-12 -13 -15 -47 -15 -188 0 -120 4 -176 12 -184 17 -17
429 -17 446 0 8 8 12 64 12 184 0 141 -3 175 -15 188 -23 23 -417 23 -440 0z
m423 -66 l-3 -33 -200 0 c-185 0 -200 1 -203 18 -9 46 -4 47 208 47 l201 0 -3
-32z m0 -173 l-3 -105 -190 -1 c-104 0 -196 0 -202 0 -10 1 -13 28 -13 99 0
54 3 102 7 105 3 4 96 7 205 7 l199 0 -3 -105z"/>
<path d="M41046 974 c-13 -13 -16 -44 -16 -188 0 -120 4 -176 12 -184 17 -17
429 -17 446 0 8 8 12 64 12 184 0 144 -3 175 -16 188 -23 24 -415 24 -438 0z
m424 -184 c0 -88 -3 -160 -7 -160 -17 -1 -379 -1 -390 0 -10 0 -13 38 -13 153
0 85 3 157 7 160 3 4 96 7 205 7 l198 0 0 -160z"/>
<path d="M42292 974 c-21 -15 -22 -21 -22 -184 0 -140 3 -171 16 -184 13 -14
56 -16 318 -16 221 0 305 3 314 12 8 8 12 65 12 190 0 165 -1 178 -19 188 -12
6 -128 10 -308 10 -245 0 -292 -2 -311 -16z m605 -186 l2 -158 -285 0 c-156 0
-287 -1 -291 -2 -5 -2 -9 70 -11 160 l-2 162 292 -2 293 -3 2 -157z"/>
<path d="M1757 969 c-15 -9 -17 -30 -17 -187 0 -125 4 -182 12 -190 9 -9 73
-12 225 -12 192 0 213 2 221 18 6 9 9 95 8 190 -1 134 -4 175 -15 181 -19 12
-413 11 -434 0z m411 -69 l-3 -31 -193 -2 -192 -2 0 33 0 32 196 0 195 0 -3
-30z m2 -177 l0 -108 -187 2 c-104 1 -193 2 -199 3 -7 0 -10 35 -9 103 1 56 3
103 4 105 0 1 89 2 196 2 l195 0 0 -107z"/>
<path d="M2338 970 c-23 -6 -23 -7 -26 -190 -2 -140 1 -185 10 -192 22 -13
432 -10 446 4 15 15 17 345 2 368 -8 13 -42 15 -209 15 -110 0 -210 -2 -223
-5z m78 -63 c15 -14 -7 -37 -35 -37 -32 0 -46 13 -38 34 5 13 61 15 73 3z
m165 3 c22 0 29 -5 29 -20 0 -17 -7 -20 -49 -20 -32 0 -51 5 -54 14 -7 18 13
38 31 31 8 -3 27 -5 43 -5z m69 -21 c0 -11 -4 -17 -10 -14 -5 3 -10 13 -10 21
0 8 5 14 10 14 6 0 10 -9 10 -21z m88 -165 l-3 -107 -194 1 -194 0 0 99 c1 54
2 101 2 106 1 4 89 7 196 7 l196 0 -3 -106z"/>
<path d="M3499 964 c-6 -7 -8 -84 -7 -195 l3 -184 205 -3 c113 -1 215 0 228 3
22 5 22 7 22 190 0 176 -1 185 -21 195 -29 16 -416 11 -430 -6z m421 -69 l0
-35 -197 2 -198 3 -3 33 -3 32 200 0 201 0 0 -35z m-2 -171 l-3 -106 -195 0
-195 1 -3 105 -3 106 201 0 201 0 -3 -106z"/>
<path d="M4078 973 c-16 -4 -18 -22 -18 -193 0 -162 2 -189 16 -194 9 -3 109
-6 224 -6 208 0 209 0 216 23 4 12 7 96 6 187 -1 145 -3 166 -18 177 -13 10
-68 13 -213 12 -108 -1 -204 -3 -213 -6z m410 -194 l-3 -160 -195 0 -195 0 -3
160 -2 161 200 0 200 0 -2 -161z"/>
<path d="M5323 969 c-23 -8 -23 -11 -23 -187 0 -125 4 -182 12 -190 19 -19
611 -17 627 2 8 9 11 69 9 192 l-3 178 -30 8 c-40 11 -564 9 -592 -3z m595
-190 l-3 -161 -285 1 c-157 1 -288 1 -292 1 -5 0 -8 72 -8 160 l0 160 295 0
295 0 -2 -161z"/>
<path d="M6496 964 c-13 -13 -16 -44 -16 -188 0 -120 4 -176 12 -184 9 -9 94
-12 320 -12 l308 0 10 26 c6 14 10 96 10 183 0 140 -2 160 -18 174 -16 15 -53
17 -315 17 -255 0 -298 -2 -311 -16z m602 -186 c-2 -90 -6 -162 -10 -160 -5 1
-134 2 -288 2 l-280 0 0 160 0 160 290 0 290 0 -2 -162z"/>
<path d="M7960 972 c-19 -2 -38 -9 -42 -15 -13 -21 -9 -352 4 -365 9 -9 73
-12 225 -12 200 0 213 1 223 19 6 11 10 90 10 185 0 133 -3 167 -15 180 -12
12 -47 14 -192 13 -98 0 -194 -3 -213 -5z m383 -69 c3 -16 4 -29 3 -30 -1 -1
-92 -3 -201 -3 -178 -2 -200 0 -203 15 -9 43 -2 45 202 45 l194 0 5 -27z m5
-180 l3 -103 -196 0 c-107 0 -198 -1 -202 -2 -9 -3 -16 178 -9 199 5 11 45 13
203 11 l198 -3 3 -102z"/>
<path d="M8496 968 c-14 -8 -16 -34 -16 -186 0 -125 4 -182 12 -190 9 -9 73
-12 225 -12 l213 0 11 26 c10 28 6 350 -5 361 -10 10 -422 11 -440 1z m259
-59 c35 3 56 -16 34 -30 -7 -4 -35 -8 -61 -7 -43 0 -48 2 -48 22 0 30 10 38
28 24 8 -7 29 -11 47 -9z m-183 -1 c22 0 28 -3 26 -16 -4 -19 -73 -29 -83 -12
-10 16 3 42 16 34 7 -4 25 -7 41 -6z m346 -185 c2 -66 -1 -103 -8 -103 -5 0
-97 -1 -202 -1 l-193 0 -3 106 -3 105 203 -2 203 -3 3 -102z"/>
<path d="M9666 957 c-17 -27 -22 -310 -7 -351 l11 -26 222 2 223 3 3 185 c2
166 1 186 -15 198 -13 9 -70 12 -220 12 -198 -1 -204 -2 -217 -23z m424 -61
l0 -35 -200 -1 -200 0 0 35 0 35 200 0 200 0 0 -34z m0 -171 l0 -105 -172 -1
c-95 -1 -184 -2 -198 -2 -25 -1 -25 -1 -28 106 l-3 107 201 0 200 0 0 -105z"/>
<path d="M10246 967 c-17 -13 -19 -28 -18 -192 1 -98 5 -182 10 -187 4 -4 107
-7 228 -6 l219 3 3 189 c2 133 -1 192 -9 197 -6 3 -102 7 -213 8 -158 2 -205
-1 -220 -12z m414 -187 c0 -153 -1 -160 -20 -160 -11 0 -100 -1 -197 -1 l-178
0 -3 160 -2 161 200 0 200 0 0 -160z"/>
<path d="M11484 963 c-19 -19 -21 -352 -2 -371 9 -9 93 -12 314 -12 262 0 305
2 318 16 23 22 23 329 1 361 -14 21 -20 21 -316 21 -247 -1 -303 -3 -315 -15z
m606 -182 l0 -158 -87 -6 c-106 -6 -479 -4 -487 3 -4 4 -10 285 -7 313 1 4
132 7 291 7 l290 0 0 -159z"/>
<path d="M12668 969 c-16 -9 -18 -29 -18 -193 0 -158 2 -185 16 -190 9 -3 149
-6 313 -6 218 0 300 3 309 12 17 17 17 364 0 375 -20 12 -600 14 -620 2z m597
-194 l0 -160 -290 0 -290 0 -3 163 -2 162 292 -2 293 -3 0 -160z"/>
<path d="M14090 965 c-7 -8 -10 -76 -8 -196 l3 -184 222 -3 c214 -2 222 -2
233 18 17 32 12 329 -6 358 -15 22 -17 22 -224 21 -158 0 -212 -4 -220 -14z
m420 -65 l0 -29 -177 -3 c-214 -4 -223 -3 -223 26 0 13 3 26 7 29 3 4 93 7
200 7 l193 0 0 -30z m2 -161 c2 -49 1 -97 -2 -105 -5 -13 -37 -15 -200 -15
l-195 0 -3 106 -3 105 200 0 200 0 3 -91z"/>
<path d="M14661 963 c-14 -10 -16 -36 -15 -186 1 -97 5 -180 9 -186 9 -15 441
-15 450 0 11 17 6 362 -6 374 -15 15 -417 13 -438 -2z m99 -68 c0 -17 -7 -21
-40 -22 -32 -2 -40 1 -40 16 0 24 4 27 45 27 29 0 35 -4 35 -21z m183 14 c12
0 17 -6 15 -17 -2 -13 -16 -18 -52 -20 -52 -3 -70 5 -61 30 5 12 16 15 43 11
20 -2 45 -4 55 -4z m135 -184 l-3 -106 -195 0 -195 0 -3 106 -3 105 201 0 201
0 -3 -105z"/>
<path d="M15840 970 c-12 -7 -16 -42 -18 -179 -2 -110 1 -177 8 -190 10 -20
19 -21 223 -21 152 0 216 3 225 12 8 8 12 65 12 190 0 162 -2 178 -18 187 -24
13 -412 13 -432 1z m418 -72 l-3 -33 -199 0 -199 0 -2 25 c-2 14 -1 28 2 33 2
4 94 7 204 7 l200 0 -3 -32z m0 -173 l-3 -105 -190 -1 c-104 0 -196 0 -203 0
-10 1 -12 23 -8 104 2 56 5 103 5 105 1 1 91 2 201 2 l201 0 -3 -105z"/>
<path d="M16406 964 c-13 -13 -16 -44 -16 -188 0 -120 4 -176 12 -184 17 -17
429 -17 446 0 8 8 12 65 12 190 0 165 -1 178 -19 188 -12 6 -101 10 -220 10
-168 0 -202 -2 -215 -16z m424 -184 c0 -88 -3 -160 -7 -160 -17 -1 -379 -1
-389 0 -12 0 -20 293 -8 311 3 5 95 9 205 9 l199 0 0 -160z"/>
<path d="M17656 967 c-17 -12 -19 -31 -19 -191 0 -143 3 -180 14 -187 16 -10
598 -13 623 -3 14 5 16 32 16 190 0 171 -1 184 -19 194 -31 16 -592 14 -615
-3z m604 -187 l0 -160 -280 -1 c-154 -1 -286 -2 -292 -3 -10 -1 -14 39 -16
162 l-2 162 295 0 295 0 0 -160z"/>
<path d="M26317 923 c-2 -5 -3 -30 -2 -58 0 -33 5 -49 13 -47 16 3 16 -15 0
-21 -7 -2 -10 -8 -6 -12 4 -4 14 -5 23 -2 11 5 15 23 15 77 0 63 -2 70 -19 70
-11 0 -22 -3 -24 -7z"/>
<path d="M35357 924 c-4 -4 -7 -26 -7 -49 0 -37 3 -42 21 -41 19 1 22 7 23 46
1 33 -3 45 -14 48 -9 1 -19 0 -23 -4z"/>
<path d="M38656 888 c-8 -47 3 -65 31 -49 10 6 12 11 6 11 -9 0 -10 7 -2 27
11 31 6 53 -14 53 -9 0 -17 -16 -21 -42z"/>
<path d="M1677 913 c-2 -5 -3 -30 -2 -58 0 -33 5 -49 13 -47 16 3 16 -15 0
-21 -7 -2 -10 -8 -6 -12 4 -4 14 -5 23 -2 11 5 15 23 15 77 0 63 -2 70 -19 70
-11 0 -22 -3 -24 -7z"/>
<path d="M10717 914 c-14 -14 -7 -82 9 -88 27 -11 30 -7 29 41 0 35 -4 49 -15
51 -9 1 -19 0 -23 -4z"/>
<path d="M14016 878 c-8 -46 3 -65 31 -53 11 5 14 9 6 12 -9 3 -9 12 -2 30 11
31 5 53 -14 53 -9 0 -17 -16 -21 -42z"/>
<path d="M25060 555 c-18 -22 -3 -57 23 -53 15 2 23 11 24 28 1 14 -1 18 -3 8
-3 -9 -11 -19 -19 -22 -21 -8 -30 15 -12 29 10 7 17 15 17 19 0 11 -17 6 -30
-9z"/>
<path d="M26546 556 c3 -8 -4 -16 -17 -19 -13 -4 -21 -8 -18 -11 11 -12 49 8
49 25 0 11 -4 19 -10 19 -5 0 -7 -6 -4 -14z"/>
<path d="M33021 554 c12 -15 54 -20 45 -5 -3 5 -17 11 -31 13 -20 4 -23 3 -14
-8z"/>
<path d="M33098 559 c-26 -14 -24 -59 2 -59 16 0 20 7 20 35 0 19 -1 35 -2 35
-2 0 -11 -5 -20 -11z"/>
<path d="M40935 530 c0 -28 3 -36 15 -33 9 2 15 15 15 33 0 18 -6 31 -15 33
-12 3 -15 -5 -15 -33z"/>
<path d="M420 545 c-18 -22 -3 -57 23 -53 15 2 23 11 24 28 1 14 -1 18 -3 8
-3 -9 -11 -19 -19 -22 -21 -8 -30 15 -12 29 10 7 17 15 17 19 0 11 -17 6 -30
-9z"/>
<path d="M1906 546 c3 -8 -4 -16 -17 -19 -13 -4 -21 -8 -18 -11 11 -12 49 8
49 25 0 11 -4 19 -10 19 -5 0 -7 -6 -4 -14z"/>
<path d="M8458 549 c-26 -14 -24 -59 2 -59 16 0 20 7 20 35 0 19 -1 35 -2 35
-2 0 -11 -5 -20 -11z"/>
<path d="M16294 524 c1 -24 6 -34 17 -34 22 0 22 57 -1 63 -13 3 -16 -3 -16
-29z"/>
<path d="M28584 530 c1 -25 5 -30 26 -30 18 0 21 3 11 9 -8 5 -12 18 -8 30 4
15 0 21 -13 21 -13 0 -17 -8 -16 -30z"/>
<path d="M28644 545 c-9 -21 3 -45 21 -45 10 0 15 10 15 30 0 32 -26 43 -36
15z"/>
<path d="M40996 544 c-12 -30 -6 -44 17 -44 20 0 23 4 19 30 -5 32 -26 40 -36
14z"/>
<path d="M3944 520 c1 -25 5 -30 26 -30 18 0 21 3 11 9 -8 5 -12 18 -8 30 4
15 0 21 -13 21 -13 0 -17 -8 -16 -30z"/>
<path d="M4004 535 c-9 -21 3 -45 21 -45 10 0 15 10 15 30 0 32 -26 43 -36 15z"/>
<path d="M8385 540 c3 -5 15 -10 26 -10 11 0 17 5 14 10 -3 6 -15 10 -26 10
-11 0 -17 -4 -14 -10z"/>
<path d="M16356 534 c-11 -30 -6 -44 17 -44 18 0 22 6 22 30 0 33 -28 43 -39
14z"/>
<path d="M27126 543 c-19 -19 -3 -33 39 -33 34 0 45 4 45 16 0 11 -8 15 -28
13 -15 -2 -32 0 -38 4 -6 3 -14 4 -18 0z"/>
<path d="M2486 533 c-19 -19 -3 -33 39 -33 34 0 45 4 45 16 0 11 -8 15 -28 13
-15 -2 -32 0 -38 4 -6 3 -14 4 -18 0z"/>
<path d="M26590 520 c0 -17 4 -21 20 -17 11 3 36 1 57 -3 20 -5 43 -5 51 -1
23 13 -7 28 -70 36 -55 7 -58 6 -58 -15z"/>
<path d="M27222 528 c3 -8 26 -14 62 -16 44 -2 57 0 54 10 -3 8 -26 14 -62 16
-44 2 -57 0 -54 -10z"/>
<path d="M1950 510 c0 -17 4 -21 20 -17 11 3 36 1 57 -3 20 -5 43 -5 51 -1 23
13 -7 28 -70 36 -55 7 -58 6 -58 -15z"/>
<path d="M2582 518 c3 -8 26 -14 62 -16 44 -2 57 0 54 10 -3 8 -26 14 -62 16
-44 2 -57 0 -54 -10z"/>
<path d="M33026 515 c-4 -11 2 -15 21 -15 21 0 24 2 13 15 -7 8 -16 15 -20 15
-4 0 -10 -7 -14 -15z"/>
<path d="M8386 505 c-4 -11 2 -15 21 -15 21 0 24 2 13 15 -7 8 -16 15 -20 15
-4 0 -10 -7 -14 -15z"/>
<path d="M24863 3 c59 -2 154 -2 210 0 56 1 8 3 -108 3 -115 0 -161 -2 -102
-3z"/>
<path d="M49038 3 c34 -2 88 -2 120 0 31 2 3 3 -63 3 -66 0 -92 -1 -57 -3z"/>
</g>
</svg>
