<svg width="20" height="20" viewBox="0 0 20 20" fill="none" xmlns="http://www.w3.org/2000/svg">
<path fill-rule="evenodd" clip-rule="evenodd" d="M10.688 3.31308C10.6035 3.2134 10.498 3.13365 10.379 3.07954C10.2601 3.02542 10.1307 2.99829 9.99999 3.00008C9.74999 3.00008 9.49999 3.09408 9.28099 3.31308L4.28099 8.28108C4.0989 8.47605 3.99835 8.73332 3.99999 9.00008C3.99999 9.56308 4.43799 10.0001 4.99999 10.0001C5.24999 10.0001 5.49999 9.90608 5.68799 9.71908L8.99999 6.40608V16.0001C8.99999 16.5631 9.43799 17.0001 9.99999 17.0001C10.531 17.0001 11 16.5621 11 16.0001V6.40608L14.281 9.71908C14.5 9.90608 14.75 10.0001 15 10.0001C15.531 10.0001 16 9.56208 16 9.00008C16.0021 8.76897 15.922 8.54463 15.774 8.36708L10.688 3.31308Z" fill="#282D37" style="fill: rgb(255, 255, 255);"></path>
</svg>