<svg width="20" height="20" viewBox="0 0 20 20" fill="none" xmlns="http://www.w3.org/2000/svg">
<path fill-rule="evenodd" clip-rule="evenodd" d="M10.688 16.6869C10.6035 16.7866 10.498 16.8664 10.379 16.9205C10.2601 16.9746 10.1307 17.0017 9.99999 16.9999C9.74999 16.9999 9.49999 16.9059 9.28099 16.6869L4.28099 11.7189C4.0989 11.524 3.99835 11.2667 3.99999 10.9999C3.99999 10.4369 4.43799 9.99992 4.99999 9.99992C5.24999 9.99992 5.49999 10.0939 5.68799 10.2809L8.99999 13.5939V3.99992C8.99999 3.43692 9.43799 2.99992 9.99999 2.99992C10.531 2.99992 11 3.43792 11 3.99992V13.5939L14.281 10.2809C14.5 10.0939 14.75 9.99992 15 9.99992C15.531 9.99992 16 10.4379 16 10.9999C16.0021 11.231 15.922 11.4554 15.774 11.6329L10.688 16.6869Z" fill="#282D37" style="fill: rgb(255, 255, 255);"></path>
</svg>