<svg width="20" height="20" viewBox="0 0 20 20" fill="none" xmlns="http://www.w3.org/2000/svg">
<path fill-rule="evenodd" clip-rule="evenodd" d="M16.6974 3.29276C16.8778 3.47285 16.9826 3.71506 16.9904 3.96986C16.9982 4.22467 16.9084 4.47284 16.7394 4.66364L4.70524 16.7056C4.61272 16.7989 4.50265 16.8729 4.38139 16.9235C4.26012 16.974 4.13006 17 3.9987 17C3.86734 17 3.73728 16.974 3.61602 16.9235C3.49476 16.8729 3.38469 16.7989 3.29216 16.7056C3.19914 16.6129 3.12537 16.5027 3.07511 16.3814C3.02486 16.2601 2.99911 16.13 2.99935 15.9986C2.49168 15.9966 1.99201 15.4857 2 14.9987V10.9991C2 9.89918 2.89942 8.99925 3.9987 8.99925H5.9974C7.09669 8.99925 7.81622 9.70919 7.98811 10.5941L15.2844 3.29276C15.4718 3.10531 15.7259 3 15.9909 3C16.2559 3 16.51 3.10531 16.6974 3.29276ZM13.0038 11.2421V15.0167C13.0038 15.5347 12.5511 15.9886 12.0015 15.9886C11.6607 15.9886 10.8253 15.9916 9.49513 15.9986V14.7487L13.0038 11.2421ZM16.0908 8.99925C17.0902 8.99925 17.9896 9.89918 17.9976 10.9991C18.0026 11.666 17.9996 13.0049 17.9876 15.0167C17.9876 15.5347 17.5359 15.9886 16.9853 15.9886C16.8174 15.9886 15.9859 15.9916 14.4919 15.9986V10.0032C14.4919 9.88218 14.5149 9.76919 14.5618 9.6662L15.1764 9.05025C15.2394 9.03025 15.3243 9.00725 15.4732 8.99925H16.0908ZM10.5095 3.9997C11.3309 3.9997 11.9935 4.66264 11.9935 5.48357C11.9935 6.33649 11.3309 6.99943 10.5095 6.99943C9.69 6.99943 8.99545 6.33649 8.99545 5.48357C8.99545 4.66364 9.69 3.9997 10.5095 3.9997ZM5.01404 3.9997C5.83451 3.9997 6.49808 4.66264 6.49808 5.48357C6.49708 6.33649 5.83451 6.99943 5.01404 6.99943C4.19458 6.99943 3.50003 6.33649 3.50003 5.48357C3.50003 4.66364 4.19458 3.9997 5.01404 3.9997Z" fill="#282D37" style="fill: rgb(236, 0, 22);"></path>
</svg>