<svg width="20" height="20" viewBox="0 0 20 20" fill="none" xmlns="http://www.w3.org/2000/svg">
<path fill-rule="evenodd" clip-rule="evenodd" d="M14.502 10C14.502 10.55 14.923 11 15.474 11H15.992L16 15C16 15.518 16.445 15.984 16.996 15.984C17.546 15.984 18 15.518 18 15V11C18 9.866 17.134 9 16 9H15.474C14.924 9 14.502 9.45 14.502 10ZM15.484 7C16.337 7 17 6.337 17 5.484C17 4.664 16.337 4 15.484 4C14.664 4 14 4.663 14 5.484C14 6.337 14.663 7 15.484 7ZM2 15C2 15.55 2.45 16 3 16H7C7.583 16 8.024 15.53 8.024 15.012L8 11C8 9.963 7.036 9 6 9H4C2.931 9 2 9.996 2 11V15ZM9.514 10L9.5 16H12C12.55 16 13 15.518 13 15V11C13 9.866 12.138 9 11.004 9H10.518C10.3858 8.99743 10.2544 9.02152 10.1317 9.07081C10.009 9.12011 9.89747 9.1936 9.80377 9.28693C9.71008 9.38025 9.63614 9.49148 9.58635 9.61399C9.53657 9.7365 9.51196 9.86778 9.514 10ZM5.016 7C5.836 7 6.5 6.337 6.5 5.484C6.5 4.664 5.837 4 5.016 4C4.195 4 3.5 4.663 3.5 5.484C3.5 6.337 4.195 7 5.016 7ZM10.516 7C11.336 7 12 6.337 12 5.484C12 4.664 11.337 4 10.516 4C9.695 4 9 4.663 9 5.484C9 6.337 9.695 7 10.516 7Z" fill="#9ca3af"></path>
</svg>