<svg width="20" height="20" viewBox="0 0 20 20" fill="none" xmlns="http://www.w3.org/2000/svg">
<path fill-rule="evenodd" clip-rule="evenodd" d="M5.724 10.299L10 14.579L14.276 10.299C14.476 10.1 14.74 10 15.006 10C15.536 10 16 10.431 16 10.995C16 11.261 15.901 11.526 15.702 11.692L10.62 16.78C10.455 16.927 10.227 17 10 17C9.738 16.995 9.489 16.888 9.304 16.702L4.298 11.692C4.133 11.526 4 11.261 4 10.995C4 10.431 4.464 10 4.994 10C5.26 10 5.524 10.099 5.724 10.299ZM5.724 3.299L10 7.579L14.276 3.299C14.476 3.1 14.74 3 15.006 3C15.536 3 16 3.431 16 3.995C16 4.261 15.901 4.526 15.702 4.692L10.62 9.78C10.455 9.927 10.227 10 10 10C9.738 9.995 9.489 9.888 9.304 9.702L4.298 4.692C4.133 4.526 4 4.261 4 3.995C4 3.431 4.464 3 4.994 3C5.26 3 5.524 3.099 5.724 3.299Z" fill="#282D37" style="fill: rgb(255, 255, 255);"></path>
</svg>