<svg width="20" height="20" viewBox="0 0 20 20" fill="none" xmlns="http://www.w3.org/2000/svg">
<path fill-rule="evenodd" clip-rule="evenodd" d="M4.994 10C4.464 10 4 9.569 4 9.005C4 8.739 4.133 8.474 4.298 8.308L9.304 3.298C9.489 3.112 9.738 3.005 10 3C10.227 3 10.455 3.073 10.62 3.22L15.702 8.308C15.901 8.474 16 8.739 16 9.005C16 9.569 15.536 10 15.006 10C14.74 10 14.476 9.9 14.276 9.701L10 5.421L5.724 9.701C5.524 9.901 5.26 10 4.994 10ZM4.994 17C4.464 17 4 16.569 4 16.005C4 15.739 4.133 15.474 4.298 15.308L9.304 10.298C9.489 10.112 9.738 10.005 10 10C10.227 10 10.455 10.073 10.62 10.22L15.702 15.308C15.901 15.474 16 15.739 16 16.005C16 16.569 15.536 17 15.006 17C14.74 17 14.476 16.9 14.276 16.701L10 12.421L5.724 16.701C5.524 16.901 5.26 17 4.994 17Z" fill="#282D37" style="fill: rgb(255, 255, 255);"></path>
</svg>