<svg width="20" height="20" viewBox="0 0 20 20" fill="none" xmlns="http://www.w3.org/2000/svg">
<path fill-rule="evenodd" clip-rule="evenodd" d="M2 10C2 5.588 5.588 2 10 2C11.392 2 12.824 2.176 12.824 3.235C12.824 3.705 12.412 4.235 11.824 4.235C11.667 4.235 10.726 4 10 4C8.4087 4 6.88258 4.63214 5.75736 5.75736C4.63214 6.88258 4 8.4087 4 10C4 11.5913 4.63214 13.1174 5.75736 14.2426C6.88258 15.3679 8.4087 16 10 16C10.706 16 11.647 15.765 11.824 15.765C12.373 15.765 12.824 16.235 12.824 16.765C12.8224 16.9848 12.7485 17.1979 12.6136 17.3714C12.4788 17.5449 12.2906 17.6692 12.078 17.725C11.4 17.9055 10.7016 17.998 10 18C5.588 18 2 14.412 2 10ZM7 9.647C7 9.078 7.451 8.647 8 8.647C8.284 8.654 8.518 8.732 8.733 8.947L10.741 10.956L16.392 5.294C16.569 5.098 16.862 5 17.118 5C17.686 5 18.118 5.451 18.118 6C18.1232 6.13196 18.0995 6.26347 18.0488 6.38538C17.998 6.5073 17.9213 6.6167 17.824 6.706L11.451 13.078C11.3586 13.1713 11.2487 13.2454 11.1275 13.2961C11.0063 13.3467 10.8763 13.3729 10.745 13.373C10.412 13.373 10.255 13.294 10.039 13.078L7.294 10.353C7.19723 10.2633 7.12089 10.1538 7.07016 10.032C7.01944 9.91018 6.99551 9.77888 7 9.647Z" fill="#282D37" style="fill:rgb(99, 166, 21);"></path>
</svg>