<svg width="20" height="20" viewBox="0 0 20 20" fill="none" xmlns="http://www.w3.org/2000/svg">
<path fill-rule="evenodd" clip-rule="evenodd" d="M10.7545 3.44972L11.1097 2.698C11.2277 2.44833 11.1209 2.15029 10.8713 2.03231C10.7974 1.99739 10.716 1.98112 10.6344 1.98492L9.80388 2.02355C5.54607 2.2216 2.18109 5.73716 2.18109 10.0148C2.18109 14.4331 5.76281 18.0148 10.1811 18.0148C13.3043 18.0148 16.1015 16.2083 17.4146 13.435L17.7707 12.683C17.8889 12.4334 17.7824 12.1353 17.5328 12.0171C17.4588 11.9821 17.3774 11.9657 17.2956 11.9695L16.4645 12.0081C16.3704 12.0124 16.2759 12.0146 16.1811 12.0146C12.8674 12.0146 10.1811 9.32834 10.1811 6.01463C10.1811 5.11508 10.3785 4.24527 10.7545 3.44972Z" fill="#282D37" style="fill: rgb(255, 255, 255);"></path>
</svg>